<svg width="290" height="290" viewBox="0 0 290 290" fill="none" xmlns="http://www.w3.org/2000/svg">
<path d="M290 145C290 225.081 225.081 290 145 290C64.9187 290 0 225.081 0 145C0 64.9187 64.9187 0 145 0C225.081 0 290 64.9187 290 145Z" fill="#20B1DE"/>
<path fill-rule="evenodd" clip-rule="evenodd" d="M153 33.5C153 39.1886 149.2 43.9897 144 45.5034V67.0056C144.363 67.0019 144.727 67 145.092 67C168.632 67 188.182 75.7027 203.742 93.1081C206.535 96.2024 207.532 99.3934 206.734 102.681C205.936 105.969 203.742 108.87 200.151 111.384C197.358 113.318 194.266 113.995 190.875 113.414C187.483 112.641 184.391 110.9 181.598 108.193C171.824 98.1363 159.655 93.1081 145.092 93.1081C129.732 93.1081 117.263 98.1363 107.688 108.193C98.1125 118.056 93.3248 131.207 93.3248 147.645C93.3248 158.088 95.5192 167.371 99.908 175.494C104.496 183.616 110.78 190.095 118.76 194.93C126.739 199.571 136.015 201.892 146.588 201.892C160.154 201.892 171.125 198.508 179.504 191.739C182.696 189.225 185.987 187.871 189.379 187.677C192.77 187.291 195.762 188.161 198.355 190.288C201.747 192.996 203.642 196.09 204.041 199.571C204.44 202.859 203.243 205.856 200.45 208.564C186.087 221.521 168.133 228 146.588 228C145.721 228 144.858 227.99 144 227.969V244.497C149.2 246.01 153 250.811 153 256.5C153 263.404 147.404 269 140.5 269C133.596 269 128 263.404 128 256.5C128 250.811 131.8 246.01 137 244.497V227.562C124.86 226.429 113.793 223.094 103.798 217.557C100.906 215.884 98.1565 214.079 95.5483 212.142L83.6403 224.05C86.2469 228.797 85.539 234.879 81.5166 238.901C76.635 243.783 68.7205 243.783 63.8389 238.901C58.9573 234.02 58.9573 226.105 63.8389 221.224C67.8614 217.201 73.9432 216.493 78.6905 219.1L90.084 207.706C83.9585 202.276 78.7549 195.987 74.4731 188.838C68.7882 178.918 65.4176 167.972 64.3615 156H46.5034C44.9897 161.2 40.1886 165 34.5 165C27.5964 165 22 159.404 22 152.5C22 145.596 27.5964 140 34.5 140C40.1886 140 44.9897 143.8 46.5034 149H64.0092C64.0031 148.55 64 148.098 64 147.645C64 131.98 67.4911 118.056 74.4731 105.872C76.7178 101.955 79.2304 98.3181 82.0111 94.9609L69.6905 82.6402C64.9431 85.2469 58.8613 84.539 54.8388 80.5165C49.9573 75.635 49.9573 67.7204 54.8388 62.8388C59.7204 57.9573 67.6349 57.9573 72.5165 62.8388C76.539 66.8613 77.2469 72.9432 74.6402 77.6905L86.7335 89.7837C91.5595 84.9784 97.0481 80.8649 103.2 77.4432C113.243 71.6969 124.51 68.322 137 67.3185V45.5034C131.8 43.9897 128 39.1886 128 33.5C128 26.5964 133.596 21 140.5 21C147.404 21 153 26.5964 153 33.5Z" fill="#295F70"/>
<path fill-rule="evenodd" clip-rule="evenodd" d="M216 271.915C260.166 247.064 290 199.745 290 145.457C290 91.1701 260.166 43.8507 216 19V271.915Z" fill="#295F70"/>
<rect x="126" y="122" width="133" height="14.3" rx="7.15" fill="white"/>
<rect x="126" y="166" width="133" height="14.3" rx="7.15" fill="white"/>
<rect x="126" y="144" width="133" height="14.3" rx="7.15" fill="white"/>
</svg>
