<svg width="217" height="189" viewBox="0 0 217 189" fill="none" xmlns="http://www.w3.org/2000/svg">
<path d="M3.4924 99.7687C1.37362 96.5724 1.37363 92.4276 3.49241 89.2313L51.3989 16.9613C53.1787 14.2763 56.195 12.6606 59.4275 12.6606H157.572C160.805 12.6606 163.821 14.2763 165.601 16.9613L213.507 89.2313C215.626 92.4276 215.626 96.5724 213.507 99.7687L165.601 172.038C163.821 174.724 160.805 176.339 157.572 176.339H59.4275C56.195 176.339 53.1787 174.724 51.3988 172.038L3.4924 99.7687Z" fill="#AE2121"/>
<path d="M154.353 164.923C153.62 165.206 152.85 165.401 152.059 165.499L151.985 164.905C151.62 164.95 151.249 164.973 150.876 164.973H149.374V165.571H146.369V164.973H143.364V165.571H140.36V164.973H137.355V165.571H134.351V164.973H131.346V165.571H128.341V164.973H125.336V165.571H122.332V164.973H119.327V165.571H116.323V164.973H113.318V165.571H110.314V164.973H107.309V165.571H104.304V164.973H101.3V165.571H98.295V164.973H95.2906V165.571H92.2857V164.973H89.2814V165.571H86.2764V164.973H83.2721V165.571H80.2677V164.973H77.2628V165.571H74.2585V164.973H71.2535V165.571H68.2492V164.973H66.7464C66.3731 164.973 66.0029 164.95 65.6374 164.905L65.5634 165.499C64.7724 165.401 64.0018 165.206 63.269 164.923L63.4866 164.366C62.7947 164.099 62.1383 163.748 61.533 163.321L61.185 163.809C60.5442 163.357 59.9562 162.825 59.4379 162.222L59.8947 161.833C59.6554 161.555 59.4318 161.26 59.2258 160.95L58.3743 159.669L57.8729 159.999L56.1698 157.436L56.6712 157.106L54.9681 154.543L54.4666 154.874L52.7635 152.311L53.265 151.981L51.5618 149.419L51.0605 149.748L49.3573 147.186L49.8587 146.856L48.1556 144.294L47.6542 144.623L45.9511 142.061L46.4525 141.731L44.7494 139.169L44.248 139.498L42.5449 136.936L43.0462 136.606L41.3431 134.043L40.8417 134.373L39.1386 131.811L39.64 131.481L37.9369 128.918L37.4355 129.248L35.7324 126.686L36.2338 126.355L34.5306 123.793L34.0293 124.123L32.3261 121.56L32.8275 121.23L31.1244 118.668L30.623 118.998L28.9199 116.435L29.4213 116.105L27.7182 113.543L27.2168 113.872L25.5137 111.31L26.015 110.98L24.3119 108.418L23.8105 108.747L22.1074 106.185L22.6088 105.855L20.9057 103.293L20.4043 103.622L18.7012 101.06L19.2026 100.73L18.351 99.4487C18.1062 99.0802 17.8915 98.6987 17.7068 98.3069L17.1626 98.5605C16.7602 97.7064 16.4915 96.8075 16.3564 95.893L16.9512 95.8062C16.8233 94.9402 16.8233 94.0598 16.9512 93.1943L16.3564 93.107C16.4915 92.1925 16.7602 91.2936 17.1626 90.4395L17.7069 90.6931C17.8915 90.3013 18.1062 89.9197 18.351 89.5513L19.2026 88.2702L18.7012 87.94L20.4043 85.3777L20.9057 85.7073L22.6088 83.145L22.1074 82.8149L23.8105 80.2526L24.3119 80.5822L26.015 78.0199L25.5137 77.6897L27.2168 75.1275L27.7182 75.457L29.4213 72.8948L28.9199 72.5646L30.623 70.0024L31.1244 70.3319L32.8275 67.7696L32.3261 67.4395L34.0293 64.8772L34.5306 65.2068L36.2338 62.6445L35.7324 62.3144L37.4355 59.752L37.9369 60.0816L39.64 57.5194L39.1386 57.1895L40.8417 54.6269L41.3431 54.9568L43.0462 52.3942L42.5449 52.0643L44.248 49.5018L44.7494 49.8317L46.4525 47.2691L45.9511 46.9392L47.6542 44.3766L48.1556 44.7066L49.8587 42.144L49.3573 41.8141L51.0604 39.2516L51.5618 39.5814L53.2649 37.0189L52.7635 36.689L54.4666 34.1264L54.968 34.4564L56.6711 31.8938L56.1698 31.5639L57.8729 29.0013L58.3743 29.3312L59.2258 28.0499C59.4318 27.74 59.6554 27.4454 59.8947 27.1669L59.4379 26.7782C59.9562 26.175 60.5442 25.6432 61.185 25.191L61.533 25.679C62.1383 25.2521 62.7947 24.901 63.4866 24.6339L63.269 24.0763C64.0018 23.7935 64.7724 23.599 65.5634 23.5015L65.6374 24.095C66.0029 24.0501 66.3731 24.027 66.7464 24.027H68.2492V23.4289H71.2535V24.027H74.2585V23.4289H77.2628V24.027H80.2677V23.4289H83.2721V24.027H86.2764V23.4289H89.2814V24.027H92.2857V23.4289H95.2906V24.027H98.295V23.4289H101.3V24.027H104.304V23.4289H107.309V24.027H110.314V23.4289H113.318V24.027H116.323V23.4289H119.327V24.027H122.332V23.4289H125.336V24.027H128.341V23.4289H131.346V24.027H134.351V23.4289H137.355V24.027H140.36V23.4289H143.364V24.027H146.369V23.4289H149.374V24.027H150.876C151.25 24.027 151.62 24.0501 151.985 24.095L152.059 23.5015C152.85 23.599 153.62 23.7935 154.353 24.0763L154.136 24.6339C154.828 24.901 155.484 25.2521 156.09 25.679L156.437 25.191C157.079 25.6432 157.666 26.175 158.185 26.7782L157.728 27.1669C157.967 27.4454 158.191 27.74 158.397 28.0499L159.249 29.3312L159.75 29.0013L161.453 31.5639L160.951 31.8937L162.654 34.4563L163.156 34.1264L164.859 36.6889L164.357 37.0189L166.061 39.5814L166.562 39.2515L168.265 41.8141L167.764 42.144L169.467 44.7066L169.968 44.3766L171.672 46.9392L171.17 47.2691L172.873 49.8317L173.375 49.5018L175.078 52.0643L174.576 52.3942L176.28 54.9568L176.781 54.6269L178.484 57.1895L177.983 57.5194L179.686 60.0816L180.187 59.752L181.89 62.3144L181.389 62.6445L183.092 65.2068L183.593 64.8772L185.296 67.4395L184.795 67.7696L186.498 70.3319L186.999 70.0024L188.703 72.5646L188.202 72.8948L189.904 75.457L190.406 75.1275L192.109 77.6897L191.607 78.0199L193.31 80.5822L193.812 80.2526L195.515 82.8149L195.014 83.145L196.717 85.7073L197.218 85.3777L198.921 87.94L198.42 88.2702L199.272 89.5513C199.516 89.9197 199.731 90.3013 199.916 90.6931L200.46 90.4395C200.863 91.2936 201.131 92.1925 201.266 93.107L200.672 93.1943C200.799 94.0598 200.799 94.9402 200.672 95.8062L201.266 95.893C201.131 96.8075 200.863 97.7064 200.46 98.5605L199.916 98.3069C199.731 98.6987 199.516 99.0802 199.272 99.4487L198.42 100.73L198.922 101.06L197.218 103.622L196.717 103.293L195.014 105.855L195.515 106.185L193.812 108.747L193.31 108.418L191.607 110.98L192.109 111.31L190.406 113.872L189.904 113.543L188.202 116.105L188.703 116.435L186.999 118.998L186.498 118.668L184.795 121.23L185.296 121.56L183.593 124.123L183.092 123.793L181.389 126.355L181.89 126.686L180.187 129.248L179.686 128.918L177.983 131.481L178.484 131.811L176.781 134.373L176.28 134.043L174.576 136.606L175.078 136.936L173.375 139.498L172.873 139.169L171.17 141.731L171.672 142.061L169.968 144.623L169.467 144.293L167.764 146.856L168.265 147.186L166.562 149.748L166.061 149.418L164.357 151.981L164.859 152.311L163.156 154.874L162.654 154.543L160.951 157.106L161.453 157.436L159.75 159.999L159.249 159.669L158.397 160.95C158.191 161.26 157.967 161.555 157.728 161.833L158.185 162.222C157.666 162.825 157.079 163.357 156.437 163.809L156.09 163.321C155.484 163.748 154.828 164.099 154.136 164.366L154.353 164.923Z" stroke="white" stroke-width="2" stroke-dasharray="5 5"/>
<path d="M60.6578 78.2017C60.3404 78.2017 60.0732 78.0941 59.8568 77.8788C59.6404 77.6635 59.5322 77.3979 59.5322 77.0821V62.5052C59.5322 62.175 59.6404 61.9095 59.8568 61.7085C60.0732 61.4932 60.3404 61.3855 60.6578 61.3855C61.0906 61.3855 61.4224 61.5865 61.6532 61.9884L68.0803 74.7997L74.3342 61.9884C74.565 61.5865 74.8968 61.3855 75.3296 61.3855C75.647 61.3855 75.9139 61.4932 76.1303 61.7085C76.3467 61.9095 76.4549 62.175 76.4549 62.5052V77.0821C76.4549 77.3979 76.3395 77.6635 76.1087 77.8788C75.8923 78.0941 75.6326 78.2017 75.3296 78.2017C75.0123 78.2017 74.7454 78.0941 74.529 77.8788C74.3126 77.6635 74.2044 77.3979 74.2044 77.0821V66.3809L68.9675 76.996C68.7223 77.3692 68.3977 77.5558 67.9937 77.5558C67.5176 77.5558 67.1714 77.3333 66.955 76.8883L61.7831 66.5747V77.0821C61.7831 77.3979 61.6749 77.6635 61.4585 77.8788C61.2421 78.0941 60.9752 78.2017 60.6578 78.2017ZM80.1211 78.2017C79.7171 78.2017 79.407 78.0295 79.1906 77.685C78.9742 77.3405 78.9525 76.9744 79.1256 76.5869L85.2065 62.1391C85.4229 61.6367 85.7763 61.3855 86.2668 61.3855C86.7862 61.3855 87.1396 61.6367 87.3272 62.1391L93.4296 76.6299C93.5883 77.0319 93.5594 77.3979 93.343 77.728C93.1411 78.0438 92.8309 78.2017 92.4125 78.2017C92.1961 78.2017 91.9869 78.1443 91.785 78.0295C91.5974 77.9003 91.4604 77.7281 91.3738 77.5127L90.162 74.4983H82.3933L81.1598 77.5127C81.0588 77.7424 80.9073 77.9147 80.7054 78.0295C80.5178 78.1443 80.323 78.2017 80.1211 78.2017ZM83.1507 72.6466H89.4046L86.3101 64.9813L83.1507 72.6466ZM97.1324 78.2017C96.815 78.2017 96.5482 78.0941 96.3318 77.8788C96.1154 77.6635 96.0072 77.3979 96.0072 77.0821V62.5052C96.0072 62.175 96.1154 61.9095 96.3318 61.7085C96.5482 61.4932 96.815 61.3855 97.1324 61.3855H101.049C102.29 61.3855 103.415 61.5937 104.425 62.0099C105.449 62.4119 106.337 62.9932 107.087 63.754C107.837 64.5004 108.414 65.3832 108.818 66.4024C109.222 67.4216 109.424 68.5484 109.424 69.7829C109.424 71.0174 109.222 72.1514 108.818 73.1849C108.414 74.204 107.837 75.094 107.087 75.8548C106.337 76.6012 105.449 77.1826 104.425 77.5989C103.415 78.0008 102.29 78.2017 101.049 78.2017H97.1324ZM98.2577 76.2208H101.049C102.261 76.2208 103.329 75.9481 104.252 75.4026C105.19 74.8428 105.925 74.082 106.459 73.1203C106.993 72.1442 107.26 71.0317 107.26 69.7829C107.26 68.5197 106.993 67.4072 106.459 66.4455C105.925 65.4837 105.19 64.7301 104.252 64.1846C103.329 63.6392 102.261 63.3664 101.049 63.3664H98.2577V76.2208ZM114.081 78.2017C113.764 78.2017 113.497 78.0941 113.281 77.8788C113.064 77.6635 112.956 77.3979 112.956 77.0821V62.5052C112.956 62.175 113.064 61.9095 113.281 61.7085C113.497 61.4932 113.764 61.3855 114.081 61.3855H123.863C124.194 61.3855 124.461 61.486 124.663 61.687C124.865 61.8736 124.966 62.1248 124.966 62.4406C124.966 62.742 124.865 62.986 124.663 63.1727C124.461 63.3593 124.194 63.4526 123.863 63.4526H115.207V68.6848H121.417C121.749 68.6848 122.016 68.7852 122.218 68.9862C122.42 69.1728 122.521 69.4168 122.521 69.7183C122.521 70.0197 122.42 70.2709 122.218 70.4719C122.016 70.6585 121.749 70.7518 121.417 70.7518H115.207V76.1347H123.863C124.194 76.1347 124.461 76.228 124.663 76.4146C124.865 76.6012 124.966 76.8452 124.966 77.1467C124.966 77.4625 124.865 77.7209 124.663 77.9218C124.461 78.1084 124.194 78.2017 123.863 78.2017H114.081ZM135.573 78.2017C135.255 78.2017 134.988 78.0941 134.772 77.8788C134.556 77.6635 134.447 77.3979 134.447 77.0821V62.5052C134.447 62.175 134.556 61.9095 134.772 61.7085C134.988 61.4932 135.255 61.3855 135.573 61.3855C135.905 61.3855 136.171 61.4932 136.373 61.7085C136.59 61.9095 136.698 62.175 136.698 62.5052V77.0821C136.698 77.3979 136.59 77.6635 136.373 77.8788C136.171 78.0941 135.905 78.2017 135.573 78.2017ZM142.124 78.2017C141.806 78.2017 141.539 78.0941 141.323 77.8788C141.121 77.6635 141.02 77.3979 141.02 77.0821V62.5052C141.02 62.175 141.121 61.9095 141.323 61.7085C141.539 61.4932 141.806 61.3855 142.124 61.3855C142.47 61.3855 142.758 61.5219 142.989 61.7946L152.424 74.283V62.5052C152.424 62.175 152.532 61.9095 152.749 61.7085C152.965 61.4932 153.232 61.3855 153.549 61.3855C153.881 61.3855 154.148 61.4932 154.35 61.7085C154.552 61.9095 154.653 62.175 154.653 62.5052V77.0821C154.653 77.3979 154.552 77.6635 154.35 77.8788C154.148 78.0941 153.881 78.2017 153.549 78.2017C153.405 78.2017 153.246 78.173 153.073 78.1156C152.915 78.0438 152.785 77.9434 152.684 77.8142L143.249 65.3258V77.0821C143.249 77.3979 143.141 77.6635 142.924 77.8788C142.722 78.0941 142.455 78.2017 142.124 78.2017Z" fill="white"/>
<path d="M66.3627 124.799C64.6099 124.799 62.9653 124.476 61.4288 123.83C59.9138 123.162 58.583 122.247 57.436 121.084C56.3108 119.9 55.4235 118.522 54.7743 116.95C54.1468 115.379 53.833 113.678 53.833 111.847C53.833 110.039 54.1468 108.359 54.7743 106.809C55.4235 105.237 56.3108 103.87 57.436 102.707C58.583 101.523 59.9138 100.597 61.4288 99.9296C62.9436 99.2621 64.5883 98.9283 66.3627 98.9283C68.029 98.9283 69.4572 99.1437 70.6474 99.5743C71.8593 100.005 73.0711 100.715 74.2829 101.706C74.5426 101.921 74.7157 102.126 74.8023 102.32C74.8889 102.513 74.9321 102.75 74.9321 103.03C74.9321 103.439 74.7807 103.784 74.4777 104.064C74.1964 104.322 73.8501 104.473 73.439 104.516C73.0278 104.537 72.6275 104.397 72.238 104.096C71.4373 103.407 70.6042 102.879 69.7386 102.513C68.8946 102.147 67.7693 101.964 66.3627 101.964C65.086 101.964 63.885 102.223 62.7597 102.739C61.6344 103.256 60.639 103.967 59.7732 104.871C58.9292 105.775 58.2692 106.83 57.7931 108.036C57.317 109.22 57.079 110.491 57.079 111.847C57.079 113.225 57.317 114.517 57.7931 115.723C58.2692 116.907 58.9292 117.952 59.7732 118.856C60.639 119.76 61.6344 120.471 62.7597 120.988C63.885 121.483 65.086 121.73 66.3627 121.73C67.4664 121.73 68.5051 121.547 69.4789 121.181C70.4743 120.794 71.4265 120.266 72.3354 119.599C72.7249 119.319 73.1036 119.2 73.4714 119.243C73.861 119.265 74.1856 119.416 74.4452 119.696C74.7049 119.954 74.8348 120.32 74.8348 120.794C74.8348 121.246 74.6616 121.644 74.3154 121.989C71.9783 123.862 69.3274 124.799 66.3627 124.799ZM81.9218 124.476C81.4457 124.476 81.0454 124.314 80.7208 123.991C80.3962 123.668 80.2339 123.27 80.2339 122.796V100.931C80.2339 100.436 80.3962 100.037 80.7208 99.7358C81.0454 99.4128 81.4457 99.2513 81.9218 99.2513C82.4195 99.2513 82.8199 99.4128 83.1228 99.7358C83.4474 100.037 83.6097 100.436 83.6097 100.931V110.2H98.6711V100.931C98.6711 100.436 98.8334 100.037 99.158 99.7358C99.4826 99.4128 99.8829 99.2513 100.359 99.2513C100.857 99.2513 101.257 99.4128 101.56 99.7358C101.863 100.037 102.014 100.436 102.014 100.931V122.796C102.014 123.27 101.863 123.668 101.56 123.991C101.257 124.314 100.857 124.476 100.359 124.476C99.8829 124.476 99.4826 124.314 99.158 123.991C98.8334 123.668 98.6711 123.27 98.6711 122.796V113.172H83.6097V122.796C83.6097 123.27 83.4474 123.668 83.1228 123.991C82.8199 124.314 82.4195 124.476 81.9218 124.476ZM110.197 124.476C109.721 124.476 109.321 124.314 108.996 123.991C108.672 123.668 108.509 123.27 108.509 122.796V100.931C108.509 100.436 108.672 100.037 108.996 99.7358C109.321 99.4128 109.721 99.2513 110.197 99.2513C110.695 99.2513 111.095 99.4128 111.398 99.7358C111.723 100.037 111.885 100.436 111.885 100.931V122.796C111.885 123.27 111.723 123.668 111.398 123.991C111.095 124.314 110.695 124.476 110.197 124.476ZM120.024 124.476C119.548 124.476 119.147 124.314 118.823 123.991C118.52 123.668 118.368 123.27 118.368 122.796V100.931C118.368 100.436 118.52 100.037 118.823 99.7358C119.147 99.4128 119.548 99.2513 120.024 99.2513C120.543 99.2513 120.976 99.4559 121.322 99.865L135.475 118.597V100.931C135.475 100.436 135.637 100.037 135.961 99.7358C136.286 99.4128 136.686 99.2513 137.162 99.2513C137.66 99.2513 138.06 99.4128 138.363 99.7358C138.666 100.037 138.818 100.436 138.818 100.931V122.796C138.818 123.27 138.666 123.668 138.363 123.991C138.06 124.314 137.66 124.476 137.162 124.476C136.946 124.476 136.708 124.433 136.448 124.346C136.21 124.239 136.016 124.088 135.864 123.894L121.712 105.162V122.796C121.712 123.27 121.549 123.668 121.225 123.991C120.922 124.314 120.521 124.476 120.024 124.476ZM144.306 124.476C143.7 124.476 143.235 124.217 142.91 123.7C142.586 123.184 142.553 122.635 142.813 122.053L151.934 100.382C152.259 99.6281 152.789 99.2513 153.525 99.2513C154.304 99.2513 154.834 99.6281 155.115 100.382L164.269 122.118C164.507 122.721 164.464 123.27 164.139 123.765C163.836 124.239 163.371 124.476 162.743 124.476C162.419 124.476 162.105 124.39 161.802 124.217C161.521 124.023 161.315 123.765 161.185 123.442L159.367 118.92H147.714L145.864 123.442C145.713 123.787 145.485 124.045 145.182 124.217C144.901 124.39 144.609 124.476 144.306 124.476ZM148.85 116.143H158.231L153.59 104.645L148.85 116.143Z" fill="white"/>
</svg>
