<svg width="272" height="187" viewBox="0 0 272 187" fill="none" xmlns="http://www.w3.org/2000/svg">
<path d="M268.036 119.997L41.3753 185C40.5547 184.52 40.024 183.8 39.7226 182.912C39.6612 182.731 39.6093 182.543 39.5664 182.349L2.05934 47.1626C1.71472 45.5715 2.91734 44.8359 4.46798 44.5521L201.014 2L267.92 111.396C268.492 112.155 268.986 112.942 269.349 113.732C270.381 115.98 270.353 118.255 268.036 119.997Z" fill="#D8A475"/>
<path d="M8.39212 44.5521L198.639 3.30528M8.39212 44.5521L44.2779 166.987M8.39212 44.5521C7.30968 44.3934 5.76676 44.3143 4.46798 44.5521M198.639 3.30528L262.759 106.422M198.639 3.30528L201.014 2M262.759 106.422L44.2779 166.987M262.759 106.422C264.979 108.033 268.03 110.86 269.349 113.732M44.2779 166.987C41.8883 170.999 38.3183 178.774 39.7226 182.912M39.7226 182.912C40.024 183.8 40.5547 184.52 41.3753 185L268.036 119.997C270.353 118.255 270.381 115.98 269.349 113.732M39.7226 182.912L2.05934 47.1626C1.71472 45.5715 2.91734 44.8359 4.46798 44.5521M4.46798 44.5521L201.014 2M201.014 2L269.349 113.732" stroke="#7C5A3C" stroke-width="3"/>
<path d="M161.17 88.4094C56.4684 75.2522 24.1361 62.913 21.0576 58.388C31.8233 48.99 123.525 59.1712 168.031 65.4365H175.947L174.627 73.7903C168.717 72.1195 167.767 82.8402 168.031 88.4094H161.814C161.606 88.437 161.391 88.4376 161.17 88.4094Z" fill="#D5D5D5"/>
<path d="M161.17 88.4094C56.4684 75.2522 24.1361 62.913 21.0576 58.388C31.8233 48.99 123.525 59.1712 168.031 65.4365M161.17 88.4094H168.031C167.767 82.8402 168.717 72.1195 174.627 73.7903L175.947 65.4365H168.031M161.17 88.4094C166.448 89.0815 167.943 73.3742 168.031 65.4365" stroke="#818181"/>
<path d="M93.621 73.2682C90.6657 74.5213 57.2075 67.1769 40.8478 63.3481C30.5043 60.9935 46.0372 59.4084 55.0966 58.9101C69.1694 63.174 96.5763 72.0151 93.621 73.2682Z" fill="#F0F0F0"/>
<path d="M174.363 74.3124L175.946 65.4365L232.941 70.9187C236.724 71.7019 243.971 74.2602 242.705 78.2283C243.76 80.643 242.705 82.6662 241.385 84.4936C240.33 85.9555 235.316 86.8431 232.941 87.1041C229.353 81.4653 225.113 81.796 223.442 82.6662C198.111 80.7866 180.168 76.3138 174.363 74.3124Z" fill="#8C685C"/>
<path d="M174.363 74.3124L175.946 65.4365L232.941 70.9187C236.724 71.7019 243.971 74.2602 242.705 78.2283M174.363 74.3124C177.741 72.224 182.807 72.398 184.918 72.7461C198.639 77.5495 220.892 78.4023 230.303 78.2283L235.052 82.6662C237.075 82.8402 241.438 82.1963 242.705 78.2283M174.363 74.3124C180.168 76.3138 198.111 80.7866 223.442 82.6662C225.113 81.796 229.353 81.4653 232.941 87.1041C235.316 86.8431 240.33 85.9555 241.385 84.4936C242.705 82.6662 243.76 80.643 242.705 78.2283" stroke="#4B2D23"/>
<ellipse cx="237.427" cy="78.9461" rx="3.29832" ry="2.67582" fill="#654940"/>
</svg>
