<svg width="153" height="173" viewBox="0 0 153 173" fill="none" xmlns="http://www.w3.org/2000/svg">
<path d="M151.995 1C152.081 5.82058 150.964 17.4285 145.811 25.2957L140.659 81.9858L117.213 95.2906C116.698 99.8219 113.451 109.232 104.589 110.62C87.4123 108.885 47.5464 101.249 25.4922 84.5889C25.3204 69.3558 30.7481 31.3118 53.8329 1H141.947H151.995Z" fill="#17859C"/>
<path d="M145.811 25.2957C150.964 17.4285 152.081 5.82058 151.995 1H141.947M145.811 25.2957C137.824 33.6835 120.923 59.4254 117.213 95.2906M145.811 25.2957L140.659 81.9858L117.213 95.2906M117.213 95.2906C116.698 99.8219 113.451 109.232 104.589 110.62M104.589 110.62C87.4123 108.885 47.5464 101.249 25.4922 84.5889C25.3204 69.3558 30.7481 31.3118 53.8329 1H141.947M104.589 110.62C96.1377 72.441 125.973 21.6321 141.947 1" stroke="#126171"/>
<path d="M28.522 120L16.826 109.254C8.91878 112.901 3.64733 123.257 2 127.979L7.10672 130.584C9.74245 130.454 13.9157 134.764 15.6728 136.935C20.2854 151.524 45.7091 162.771 57.8445 166.57C61.9299 167.612 61.194 164.507 60.3155 162.825L46.6426 154.195L63.7749 162.825C66.5424 164.388 67.6735 162.825 67.8932 161.848C68.6839 160.676 67.5637 158.428 66.9048 157.451L49.9373 146.542L67.8932 156.149C69.7382 156.93 71.4075 155.823 72.0115 155.172C73.0658 153.739 71.5722 151.861 70.6936 151.101L54.2203 140.191L70.6936 147.356C73.1976 149.44 74.4825 148.224 74.812 147.356C75.998 145.793 74.3178 144.099 73.3294 143.448L47.4663 127.979C48.6524 126.546 56.5266 127.382 60.3155 127.979C64.6644 124.723 62.1275 123.04 60.3155 122.606C43.7104 117.395 32.201 118.698 28.522 120Z" fill="#FEE6CB" stroke="#D7A0A0" stroke-width="3"/>
<path d="M50.9556 118.401L41.2111 105.681C32.822 107.828 25.9213 117.064 23.5196 121.413L28.1187 124.912C30.7359 125.265 34.1344 130.272 35.5065 132.731C37.6408 147.941 60.8221 163.661 72.146 169.62C75.9973 171.392 75.7851 168.2 75.1976 166.383L63.1569 155.386L78.6044 167.015C81.0719 169.06 82.4439 167.727 82.8214 166.805C83.7937 165.795 83.0614 163.377 82.5737 162.295L67.6647 148.451L83.7621 161.193C85.4501 162.299 87.2768 161.514 87.9791 160.983C89.2539 159.764 88.093 157.642 87.3532 156.733L72.9309 142.98L87.9714 153.045C90.0932 155.555 91.5593 154.592 92.0271 153.797C93.4532 152.475 92.0779 150.5 91.2121 149.678L68.2951 129.719C69.6997 128.525 77.3164 130.786 80.9491 132.067C85.7695 129.654 83.5489 127.534 81.836 126.775C66.3433 118.61 54.7938 117.79 50.9556 118.401Z" fill="#FEE6CB" stroke="#D7A0A0" stroke-width="3"/>
</svg>
