<svg width="345" height="176" viewBox="0 0 345 176" fill="none" xmlns="http://www.w3.org/2000/svg">
<path d="M38.7556 85.2725L310.044 86.5956C314.688 86.9485 321.848 89.6124 313.337 97.4453H308.524C302.445 156.298 281.505 172.775 271.795 173.657L86.8835 174.98C62.769 179.638 49.3101 125.231 45.595 97.4453H40.5287C38.5867 95.5929 35.5133 90.565 38.7556 85.2725Z" fill="#8FB3DD"/>
<path d="M45.595 97.4453H40.5287C38.5867 95.5929 35.5133 90.565 38.7556 85.2725L310.044 86.5956C314.688 86.9485 321.848 89.6124 313.337 97.4453H308.524M45.595 97.4453C49.3101 125.231 62.769 179.638 86.8835 174.98L271.795 173.657C281.505 172.775 302.445 156.298 308.524 97.4453M45.595 97.4453H308.524" stroke="#235D9F"/>
<path d="M242.665 70.1889C245.789 71.6884 253.101 74.7934 257.356 75.2168V83.1555L200.616 82.5216L182.632 82.3206L157.555 82.0404L115.253 81.5678C109.005 77.5102 94.4818 67.0134 86.3761 57.4869C85.6161 55.9874 82.9311 53.5705 78.2703 55.8992C73.6095 58.2279 69.0669 56.8695 67.3783 55.8992C65.3518 54.3114 61.4509 49.7599 62.0589 44.2557C62.1434 42.5797 60.438 37.3755 52.9402 29.966C51.6736 28.9957 49.1406 26.2612 49.1406 23.0857C49.4783 22.6447 49.2926 20.4395 45.8477 15.147C46.692 12.7654 49.2926 9.43112 52.9402 15.147C52.6869 15.7645 53.2948 17.8462 57.7529 21.2334C63.3256 25.4674 70.9247 29.966 76.7507 38.1693C87.0885 44.4644 105.129 55.1306 118.799 62.3992L138.05 53.2529C141.343 51.4006 149.196 49.3365 154.262 55.8992L182.632 82.3206L200.616 82.5216L216.068 72.0413C218.432 70.7182 224.782 68.8658 231.266 72.0413C237.751 75.2168 241.567 72.1295 242.665 70.1889Z" fill="#FEE6CB"/>
<path d="M157.555 82.0404L115.253 81.5678C109.005 77.5102 94.4818 67.0134 86.3761 57.4869C85.6161 55.9874 82.9311 53.5705 78.2703 55.8992C73.6095 58.2279 69.067 56.8695 67.3783 55.8992C65.3518 54.3114 61.4509 49.7599 62.0589 44.2557C62.1434 42.5797 60.438 37.3755 52.9402 29.966C51.6736 28.9957 49.1406 26.2612 49.1406 23.0857C49.4783 22.6447 49.2926 20.4395 45.8477 15.147C46.692 12.7654 49.2926 9.43112 52.9402 15.147C52.6869 15.7645 53.2948 17.8462 57.7529 21.2334C63.3256 25.4674 70.9247 29.966 76.7507 38.1693C87.0885 44.4644 105.129 55.1306 118.799 62.3992M157.555 82.0404L135.011 69.9243C132.002 69.1203 126.008 66.2321 118.799 62.3992M157.555 82.0404L182.632 82.3206M118.799 62.3992L138.05 53.2529C141.343 51.4006 149.196 49.3365 154.262 55.8992L182.632 82.3206M182.632 82.3206L200.616 82.5216M200.616 82.5216L257.356 83.1555V75.2168C253.101 74.7934 245.789 71.6884 242.665 70.1889C241.567 72.1295 237.751 75.2168 231.266 72.0413C224.782 68.8658 218.432 70.7182 216.068 72.0413L200.616 82.5216Z" stroke="#D2C2AF"/>
<path d="M233.546 37.3755C235.37 37.3755 238.359 30.1424 239.625 26.5259C259.889 24.6206 273.399 31.7302 277.621 35.5231C275.797 43.5677 278.381 50.1657 279.901 52.4591C282.535 58.8101 280.998 64.4554 279.901 66.4842C274.429 65.0023 270.022 69.7479 268.502 72.3059C262.22 70.824 258.454 73.4526 257.356 74.9522C233.647 70.9299 229.746 54.7525 230.76 47.1666C230.928 43.9029 231.722 37.3755 233.546 37.3755Z" fill="#FEE6CB"/>
<path d="M247.225 41.0802C246.718 42.4033 245.097 44.9437 242.665 44.5203C240.233 44.0969 242.327 46.6373 243.678 47.9604" stroke="#D2C2AF" stroke-width="2"/>
<path d="M244.439 53.7822C243.425 51.4535 239.626 50.3421 237.853 50.0775C237.245 52.8295 238.781 54.3997 239.626 54.8407C241.652 55.4582 245.452 56.1109 244.439 53.7822Z" fill="#F3877E" stroke="#F3877E"/>
<path d="M263.69 34.9938C266.645 33.3179 272.404 31.8184 271.796 39.2278M242.666 27.5844C244.186 25.0263 247.377 21.6568 247.985 28.6429" stroke="#650037" stroke-width="2"/>
<path d="M258.623 43.7265C261.832 42.9326 268.097 43.1972 267.489 50.6067M239.879 34.7292C241.652 33.4943 245.452 32.1888 246.465 36.8462" stroke="#650037" stroke-width="4"/>
<path d="M258.877 54.0468C257.779 58.0162 257.762 65.3198 266.476 62.7794C267.742 59.1629 267.996 52.3532 258.877 54.0468Z" fill="#F8BBB2"/>
<path d="M232.786 42.1387C232.28 43.7265 232.128 46.6373 235.573 45.5788C236.079 43.9911 236.231 41.0802 232.786 42.1387Z" fill="#F8BBB2"/>
<path d="M258.877 54.0468C257.779 58.0162 257.762 65.3198 266.476 62.7794C267.742 59.1629 267.996 52.3532 258.877 54.0468Z" stroke="#F8BBB2"/>
<path d="M232.786 42.1387C232.28 43.7265 232.128 46.6373 235.573 45.5788C236.079 43.9911 236.231 41.0802 232.786 42.1387Z" stroke="#F8BBB2"/>
<path d="M310.551 41.8741C309.74 24.5147 298.73 11.8833 293.326 7.73754C304.269 1.80995 313.253 11.4423 316.377 16.9994C323.064 32.2418 315.279 39.9335 310.551 41.8741Z" fill="#CD3D8B" stroke="#841F57"/>
<path d="M277.875 35.5231C265.311 26.2083 246.803 25.2909 239.119 25.9966C237.701 31.2891 234.982 35.6113 233.8 37.1108L236.08 24.1442C236.687 12.7125 250.687 5.26769 257.61 2.97428C292.668 -6.5522 307.005 20.7041 309.791 35.5231C313.439 53.941 301.685 67.5427 295.353 72.0413C294.339 69.9243 289.527 70.1007 287.247 70.4535C285.221 67.9131 281.843 66.5724 280.408 66.2195C282.434 60.9271 281.252 54.8407 280.408 52.4591C276.355 47.8017 277.03 39.2278 277.875 35.5231Z" fill="#F286C1" stroke="#962F67"/>
<path d="M308.778 85.2725H232.533H43.8218C43.2308 83.5966 43.6192 80.1388 49.9011 79.7154C51.3365 76.8927 55.3219 72.0942 59.7801 75.4814C61.2999 73.7172 65.4034 70.9299 69.6589 73.8937C73.2052 66.0431 83.5906 54.3644 96.7624 70.4535L98.5356 69.395L115.254 81.5678L182.886 82.3616L173.26 73.0998C176.3 68.2307 181.788 71.6003 184.152 73.8937C193.069 54.629 204.923 63.9261 209.736 70.9828C212.776 68.019 217.251 69.395 219.108 70.4535L214.295 73.0998L200.11 82.3616L246.718 82.8909C244.287 79.7154 252.966 76.6281 257.61 75.4814C259.029 70.6123 265.801 71.3356 269.009 72.3059C275.291 61.9326 283.785 67.1016 287.247 70.9828C295.758 68.6541 298.561 74.4229 298.899 77.5984C306.194 77.5984 308.524 82.7145 308.778 85.2725Z" fill="white"/>
<path fill-rule="evenodd" clip-rule="evenodd" d="M338.623 114.886C337.312 117.72 334.535 119.674 331.321 119.674C328.247 119.674 325.573 117.886 324.199 115.252C323.807 115.374 323.392 115.44 322.962 115.44C320.584 115.44 318.656 113.426 318.656 110.941C318.656 108.457 320.584 106.442 322.962 106.442C323.484 106.442 323.984 106.539 324.447 106.717C325.88 104.327 328.423 102.738 331.321 102.738C334.379 102.738 337.042 104.507 338.422 107.119C339.081 106.69 339.86 106.442 340.694 106.442C343.072 106.442 345 108.457 345 110.941C345 113.426 343.072 115.44 340.694 115.44C339.943 115.44 339.237 115.239 338.623 114.886Z" fill="white"/>
<path fill-rule="evenodd" clip-rule="evenodd" d="M219.215 64.1646C217.959 66.0016 215.782 67.0273 213.533 66.613C211.382 66.2167 209.724 64.606 209.077 62.5633C208.788 62.5994 208.49 62.5924 208.19 62.5371C206.526 62.2305 205.417 60.5559 205.714 58.7966C206.011 57.0374 207.601 55.8598 209.265 56.1664C209.63 56.2336 209.968 56.3667 210.271 56.552C211.559 55.0448 213.529 54.2475 215.557 54.6211C217.697 55.0152 219.348 56.6109 220.002 58.6382C220.515 58.4198 221.089 58.3448 221.673 58.4523C223.337 58.7589 224.445 60.4335 224.148 62.1927C223.851 63.952 222.262 65.1296 220.597 64.823C220.072 64.7263 219.602 64.4934 219.215 64.1646Z" fill="white"/>
<path fill-rule="evenodd" clip-rule="evenodd" d="M32.6712 75.1633C32.4453 79.3576 29.8274 83.4502 25.6022 85.5084C21.561 87.4771 17.1002 87.0728 13.9012 84.8329C13.451 85.2288 12.94 85.5726 12.3749 85.8479C9.24844 87.371 5.64933 86.2206 4.33608 83.2784C3.02282 80.3363 4.49272 76.7165 7.61919 75.1934C8.30517 74.8593 9.01391 74.6538 9.71626 74.5677C10.3367 70.8199 12.8399 67.3092 16.6503 65.4529C20.6703 63.4946 25.1055 63.8844 28.3008 66.0933C28.9411 65.1635 29.8336 64.3718 30.9297 63.8379C34.0562 62.3148 37.6553 63.4652 38.9685 66.4074C40.2818 69.3495 38.8119 72.9693 35.6854 74.4924C34.6988 74.973 33.6652 75.1874 32.6712 75.1633Z" fill="white"/>
</svg>
