<svg width="246" height="163" viewBox="0 0 246 163" fill="none" xmlns="http://www.w3.org/2000/svg">
<path d="M17.327 101.101C11.8317 109.061 5.48597 111.184 3 111.25C18.3869 127.011 34.5326 117.685 40.6821 111.051L42.841 100.504L47.7475 112.245L55.7942 106.076L53.6353 94.9324L63.2521 104.484L70.5137 96.3254L66.3922 82.5945L77.1866 91.5494L83.2707 85.1815L79.1492 70.2566L88.766 79.2115C94.2613 78.0971 105.448 58.582 110.355 48.9637C114.28 37.6606 119.448 34.8348 121.542 34.8348C125.624 37.7004 125.728 34.8348 125.271 33.0438L124.485 22.6959C128.097 13.4623 132.925 18.1852 134.887 21.7009C142.581 34.1184 143.588 38.1514 143.13 38.6158C140.775 49.7597 136.654 43.2591 134.887 38.6158C132.061 30.6558 132.27 35.2991 132.728 38.6158V46.1777L146.074 55.3317C149.685 58.3564 152.027 54.8673 152.747 52.7447L153.925 46.1777C155.181 38.5362 152.747 42.9937 151.373 46.1777C146.506 53.3417 145.812 46.7747 146.074 42.5957L153.925 26.0788C159.42 21.7805 161.186 24.9512 161.382 27.0738L162.56 34.2378L166.878 28.6658C171.745 24.2083 174.009 29.3292 174.532 32.4468L175.513 51.5507C183.678 52.8243 183.756 58.0513 182.775 60.5056C176.181 77.6991 189.579 84.1201 197.102 85.1815C200.242 84.7039 203.121 86.5745 204.167 87.5695C210.134 100.146 228.635 108.464 237.139 111.051C243.262 113.28 240.476 110.786 238.317 109.26C210.055 97.002 206.522 84.1201 208.289 79.2115C213.784 73.4803 214.896 66.0776 214.765 63.0926C230.623 57.043 241.522 36.5594 244.99 27.0738C245.147 23.4123 243.485 23.9562 242.634 24.6859C235.098 47.6105 220.13 58.1176 213.588 60.5056C210.919 50.3169 198.868 49.229 193.177 49.9587C184.698 49.6403 185.85 43.9887 187.485 41.2028C198.005 14.7757 172.766 5.91364 158.831 4.78598L150.196 2L151.373 4.78598L137.439 3.59199L139.598 6.17897L126.252 7.96996L128.999 10.9549L122.327 12.1489C126.095 18.8353 122.327 21.9662 119.971 22.6959C112.592 24.2879 86.4109 39.0138 74.2427 46.1777C51.4764 58.1176 26.813 87.7685 17.327 101.101Z" fill="#96825D"/>
<path d="M214.765 73.0425L215.747 70.2566C225.01 68.0278 234.653 60.4393 238.317 56.9237C240.986 55.6501 240.345 57.4543 239.691 58.5156C231.84 67.2716 219.803 71.8486 214.765 73.0425Z" fill="#96825D"/>
<path d="M161.382 46.1777L166.878 39.8098L165.7 51.5507C164.758 57.9186 161.252 57.1227 159.616 55.9287L161.382 46.1777Z" fill="#96825D"/>
<path d="M55.7942 21.7009C6.33643 43.5111 0.906551 61.8323 4.37383 68.2666C16.4635 80.6841 49.9718 61.2353 65.2147 49.9587C66.7848 45.6603 98.8407 29.9925 114.672 22.6959C122.523 21.1039 123.046 17.3892 122.327 15.7309C116.988 4.58698 75.7473 15.0676 55.7942 21.7009Z" fill="#96825D"/>
<path d="M162.56 41.2028V37.2228L165.7 31.8498C168.212 28.3474 170.28 29.7272 170.999 30.8548C174.767 35.1532 172.569 51.4844 170.999 59.1126C168.016 65.6398 167.925 85.5795 168.252 94.7334L167.467 95.9274C166.878 115.23 173.943 119.409 173.943 122.593C178.025 135.648 193.308 146.871 200.438 150.851C202.637 152.284 201.354 152.907 200.438 153.04C193.687 150.97 183.756 141.299 179.635 136.722H178.261L170.999 125.976C165.504 117.539 164.392 101.632 164.523 94.7334L163.345 94.1364C161.932 85.0621 165.504 64.4856 167.467 55.3317C170.136 40.2078 168.186 35.8961 166.878 35.6308L162.56 41.2028Z" fill="#96825D"/>
<path d="M150.196 45.5807C147.212 50.1975 146.859 46.1777 147.055 43.5907C151.609 32.9244 153.532 29.7272 153.925 29.4618C156.908 24.5267 158.569 26.2115 159.027 27.6708C163.11 30.6956 159.42 50.423 157.065 59.9086C154.562 65.6398 152.882 82.0638 152.354 89.5594C152.354 93.0618 151.439 94.7334 150.981 95.1314C149.254 116.782 155.364 132.411 158.635 137.518C164.13 150.891 174.924 157.285 179.635 158.811C181.99 159.607 180.616 160.602 179.635 161C171.47 160.045 161.317 146.937 157.261 140.503H155.691L152.354 133.339C147.801 127.29 147.971 105.081 148.626 94.7334L147.84 94.1364C144.543 89.838 149.476 70.9862 152.354 62.0976C154.553 57.9584 155.756 46.4431 156.083 41.2028C156.397 36.1084 153.728 38.2841 152.354 40.0088L150.196 45.5807Z" fill="#96825D"/>
<path d="M139.598 41.9987C137.713 43.1131 135.672 37.2891 134.887 34.2378C133.003 31.3722 131.224 33.4418 130.57 34.8348L131.355 55.3317C127.9 74.1171 125.074 79.0788 124.093 79.2115L123.308 80.8035C123.151 84.4651 115.261 104.882 111.336 114.633C110.551 112.882 108.261 116.955 107.215 119.21C106.429 122.235 101.785 130.951 99.5603 134.931C94.6931 144.801 91.5136 146.473 90.5323 146.075C88.4912 145.438 92.037 140.636 94.065 138.314C97.6762 133.857 103.289 122.129 105.644 116.822C108.785 114.116 117.028 90.6208 120.756 79.2115L119.971 77.8185C116.36 75.9081 122.654 58.4493 126.252 49.9587C128.921 46.4563 127.364 31.2528 126.252 24.0889C127.037 16.9249 130.897 18.8486 132.728 20.7059C132.728 22.1778 137.308 29.5445 139.598 33.0438C142.581 39.571 140.841 41.7334 139.598 41.9987Z" fill="#96825D"/>
<path d="M17.327 101.101C11.8317 109.061 5.48597 111.184 3 111.25C18.3869 127.011 34.5326 117.685 40.6821 111.051L42.841 100.504L47.7475 112.245L55.7942 106.076L53.6353 94.9324L63.2521 104.484L70.5137 96.3254L66.3922 82.5945L77.1866 91.5494L83.2707 85.1815L79.1492 70.2566L88.766 79.2115C94.2613 78.0971 105.448 58.582 110.355 48.9637C114.28 37.6606 119.448 34.8348 121.542 34.8348C125.624 37.7004 125.728 34.8348 125.271 33.0438L124.485 22.6959C128.097 13.4623 132.925 18.1852 134.887 21.7009C142.581 34.1184 143.588 38.1514 143.13 38.6158C140.775 49.7597 136.654 43.2591 134.887 38.6158C132.061 30.6558 132.27 35.2991 132.728 38.6158V46.1777L146.074 55.3317C149.685 58.3564 152.027 54.8673 152.747 52.7447L153.925 46.1777C155.181 38.5362 152.747 42.9937 151.373 46.1777C146.506 53.3417 145.812 46.7747 146.074 42.5957L153.925 26.0788C159.42 21.7805 161.186 24.9512 161.382 27.0738L162.56 34.2378L166.878 28.6658C171.745 24.2083 174.009 29.3292 174.532 32.4468L175.513 51.5507C183.678 52.8243 183.756 58.0513 182.775 60.5056C176.181 77.6991 189.579 84.1201 197.102 85.1815C200.242 84.7039 203.121 86.5745 204.167 87.5695C210.134 100.146 228.635 108.464 237.139 111.051C243.262 113.28 240.476 110.786 238.317 109.26C210.055 97.002 206.522 84.1201 208.289 79.2115C213.784 73.4803 214.896 66.0776 214.765 63.0926C230.623 57.043 241.522 36.5594 244.99 27.0738C245.147 23.4123 243.485 23.9562 242.634 24.6859C235.098 47.6105 220.13 58.1176 213.588 60.5056C210.919 50.3169 198.868 49.229 193.177 49.9587C184.698 49.6403 185.85 43.9887 187.485 41.2028C198.005 14.7757 172.766 5.91364 158.831 4.78598L150.196 2L151.373 4.78598L137.439 3.59199L139.598 6.17897L126.252 7.96996L128.999 10.9549L122.327 12.1489C126.095 18.8353 122.327 21.9662 119.971 22.6959C112.592 24.2879 86.4109 39.0138 74.2427 46.1777C51.4764 58.1176 26.813 87.7685 17.327 101.101Z" stroke="#5A4417" stroke-width="2"/>
<path d="M214.765 73.0425L215.747 70.2566C225.01 68.0278 234.653 60.4393 238.317 56.9237C240.986 55.6501 240.345 57.4543 239.691 58.5156C231.84 67.2716 219.803 71.8486 214.765 73.0425Z" stroke="#5A4417" stroke-width="2"/>
<path d="M161.382 46.1777L166.878 39.8098L165.7 51.5507C164.758 57.9186 161.252 57.1227 159.616 55.9287L161.382 46.1777Z" stroke="#5A4417" stroke-width="2"/>
<path d="M55.7942 21.7009C6.33643 43.5111 0.906551 61.8323 4.37383 68.2666C16.4635 80.6841 49.9718 61.2353 65.2147 49.9587C66.7848 45.6603 98.8407 29.9925 114.672 22.6959C122.523 21.1039 123.046 17.3892 122.327 15.7309C116.988 4.58698 75.7473 15.0676 55.7942 21.7009Z" stroke="#5A4417" stroke-width="2"/>
<path d="M162.56 41.2028V37.2228L165.7 31.8498C168.212 28.3474 170.28 29.7272 170.999 30.8548C174.767 35.1532 172.569 51.4844 170.999 59.1126C168.016 65.6398 167.925 85.5795 168.252 94.7334L167.467 95.9274C166.878 115.23 173.943 119.409 173.943 122.593C178.025 135.648 193.308 146.871 200.438 150.851C202.637 152.284 201.354 152.907 200.438 153.04C193.687 150.97 183.756 141.299 179.635 136.722H178.261L170.999 125.976C165.504 117.539 164.392 101.632 164.523 94.7334L163.345 94.1364C161.932 85.0621 165.504 64.4856 167.467 55.3317C170.136 40.2078 168.186 35.8961 166.878 35.6308L162.56 41.2028Z" stroke="#5A4417" stroke-width="2"/>
<path d="M150.196 45.5807C147.212 50.1975 146.859 46.1777 147.055 43.5907C151.609 32.9244 153.532 29.7272 153.925 29.4618C156.908 24.5267 158.569 26.2115 159.027 27.6708C163.11 30.6956 159.42 50.423 157.065 59.9086C154.562 65.6398 152.882 82.0638 152.354 89.5594C152.354 93.0618 151.439 94.7334 150.981 95.1314C149.254 116.782 155.364 132.411 158.635 137.518C164.13 150.891 174.924 157.285 179.635 158.811C181.99 159.607 180.616 160.602 179.635 161C171.47 160.045 161.317 146.937 157.261 140.503H155.691L152.354 133.339C147.801 127.29 147.971 105.081 148.626 94.7334L147.84 94.1364C144.543 89.838 149.476 70.9862 152.354 62.0976C154.553 57.9584 155.756 46.4431 156.083 41.2028C156.397 36.1084 153.728 38.2841 152.354 40.0088L150.196 45.5807Z" stroke="#5A4417" stroke-width="2"/>
<path d="M139.598 41.9987C137.713 43.1131 135.672 37.2891 134.887 34.2378C133.003 31.3722 131.224 33.4418 130.57 34.8348L131.355 55.3317C127.9 74.1171 125.074 79.0788 124.093 79.2115L123.308 80.8035C123.151 84.4651 115.261 104.882 111.336 114.633C110.551 112.882 108.261 116.955 107.215 119.21C106.429 122.235 101.785 130.951 99.5603 134.931C94.6931 144.801 91.5136 146.473 90.5323 146.075C88.4912 145.438 92.037 140.636 94.065 138.314C97.6762 133.857 103.289 122.129 105.644 116.822C108.785 114.116 117.028 90.6208 120.756 79.2115L119.971 77.8185C116.36 75.9081 122.654 58.4493 126.252 49.9587C128.921 46.4563 127.364 31.2528 126.252 24.0889C127.037 16.9249 130.897 18.8486 132.728 20.7059C132.728 22.1778 137.308 29.5445 139.598 33.0438C142.581 39.571 140.841 41.7334 139.598 41.9987Z" stroke="#5A4417" stroke-width="2"/>
</svg>
