<svg width="312" height="281" viewBox="0 0 312 281" fill="none" xmlns="http://www.w3.org/2000/svg">
<g clip-path="url(#clip0)">
<path d="M228.425 270.381C270.796 270.381 305.145 235.208 305.145 191.819C305.145 148.431 270.796 113.258 228.425 113.258C186.053 113.258 151.705 148.431 151.705 191.819C151.705 235.208 186.053 270.381 228.425 270.381Z" fill="#F2F2F2"/>
<path d="M231.335 281C271.544 281 304.139 274.877 304.139 267.325C304.139 259.772 271.544 253.65 231.335 253.65C191.127 253.65 158.531 259.772 158.531 267.325C158.531 274.877 191.127 281 231.335 281Z" fill="#3F3D56"/>
<path d="M296.002 266.937C295.927 266.811 294.155 263.781 293.54 257.49C292.977 251.717 293.339 241.988 298.267 228.416C307.602 202.705 296.115 181.961 295.998 181.754L296.565 181.417C296.594 181.47 299.558 186.759 301.309 195.181C303.623 206.347 302.78 217.957 298.881 228.65C289.562 254.317 296.49 266.467 296.561 266.587L296.002 266.937Z" fill="#3F3D56"/>
<path d="M292.351 180.244C294.702 180.244 296.608 178.293 296.608 175.885C296.608 173.477 294.702 171.526 292.351 171.526C290 171.526 288.094 173.477 288.094 175.885C288.094 178.293 290 180.244 292.351 180.244Z" fill="#3F3D56"/>
<path d="M305.778 196.341C308.129 196.341 310.035 194.389 310.035 191.981C310.035 189.574 308.129 187.622 305.778 187.622C303.427 187.622 301.521 189.574 301.521 191.981C301.521 194.389 303.427 196.341 305.778 196.341Z" fill="#3F3D56"/>
<path d="M296.608 207.071C298.96 207.071 300.866 205.12 300.866 202.712C300.866 200.304 298.96 198.353 296.608 198.353C294.257 198.353 292.351 200.304 292.351 202.712C292.351 205.12 294.257 207.071 296.608 207.071Z" fill="#00B0FF"/>
<path d="M307.743 216.126C310.094 216.126 312 214.174 312 211.766C312 209.358 310.094 207.407 307.743 207.407C305.391 207.407 303.485 209.358 303.485 211.766C303.485 214.174 305.391 216.126 307.743 216.126Z" fill="#00B0FF"/>
<path d="M293.334 230.21C295.685 230.21 297.591 228.258 297.591 225.85C297.591 223.443 295.685 221.491 293.334 221.491C290.983 221.491 289.077 223.443 289.077 225.85C289.077 228.258 290.983 230.21 293.334 230.21Z" fill="#3F3D56"/>
<path d="M298.573 267.097C298.573 267.097 294.316 256.366 307.088 248.318L298.573 267.097Z" fill="#3F3D56"/>
<path d="M293.338 266.902C293.338 266.902 291.4 255.491 276.404 255.589L293.338 266.902Z" fill="#3F3D56"/>
<path d="M27.3555 141.382L94.5589 188.142L100.958 183.091L106.621 183.594L95.8515 194.318L27.3555 150.205V141.382Z" fill="#3F3D56"/>
<path d="M164.976 119.546L193.425 153.954L187.806 161.012L154.439 122.634L164.976 119.546Z" fill="#2F2E41"/>
<path d="M24.3398 139.177C27.9086 139.177 30.8017 135.819 30.8017 131.677C30.8017 127.536 27.9086 124.178 24.3398 124.178C20.771 124.178 17.8779 127.536 17.8779 131.677C17.8779 135.819 20.771 139.177 24.3398 139.177Z" fill="#00B0FF"/>
<path d="M173.719 117.124C185.271 72.7357 169.428 29.8736 138.333 21.3888C107.239 12.9041 72.6676 42.0097 61.1164 86.398C49.5653 130.786 65.4082 173.648 96.5026 182.133C127.597 190.618 162.168 161.512 173.719 117.124Z" fill="#3F3D56"/>
<path opacity="0.1" d="M168.963 115.827C179.539 75.1887 165.034 35.948 136.567 28.18C108.1 20.4121 76.4498 47.0584 65.8744 87.6962C55.2991 128.334 69.8033 167.575 98.2705 175.343C126.738 183.111 158.388 156.464 168.963 115.827Z" fill="white"/>
<path d="M105.329 100.357C106.043 100.357 106.621 99.7646 106.621 99.0337C106.621 98.3028 106.043 97.7103 105.329 97.7103C104.615 97.7103 104.037 98.3028 104.037 99.0337C104.037 99.7646 104.615 100.357 105.329 100.357Z" fill="#00B0FF"/>
<path d="M98.0053 131.677C98.719 131.677 99.2977 131.085 99.2977 130.354C99.2977 129.623 98.719 129.031 98.0053 129.031C97.2915 129.031 96.7129 129.623 96.7129 130.354C96.7129 131.085 97.2915 131.677 98.0053 131.677Z" fill="#00B0FF"/>
<path d="M134.192 103.004C134.906 103.004 135.484 102.411 135.484 101.68C135.484 100.95 134.906 100.357 134.192 100.357C133.478 100.357 132.899 100.95 132.899 101.68C132.899 102.411 133.478 103.004 134.192 103.004Z" fill="#00B0FF"/>
<path d="M126.869 134.765C127.582 134.765 128.161 134.173 128.161 133.442C128.161 132.711 127.582 132.119 126.869 132.119C126.155 132.119 125.576 132.711 125.576 133.442C125.576 134.173 126.155 134.765 126.869 134.765Z" fill="#00B0FF"/>
<path d="M29.5095 152.411L25.2705 153.28L25.2016 153.293L15.2934 150.646L12.2778 130.354L14.1044 129.481L18.7397 127.266C26.9248 127.266 28.6479 132.119 28.6479 132.119L29.5095 152.411Z" fill="#3F3D56"/>
<path opacity="0.1" d="M25.2705 153.28L25.2016 153.293L15.2934 150.646L12.2778 130.354L14.1044 129.481C17.8824 129.992 22.3024 131.091 23.9092 133.442L25.2705 153.28Z" fill="black"/>
<path d="M45.6628 102.784C45.4303 102.783 45.2021 102.719 45.0025 102.597C32.2584 94.8218 19.8677 94.8218 7.12356 102.597C6.82915 102.776 6.47748 102.827 6.14573 102.741C5.81398 102.655 5.52925 102.437 5.35403 102.136C5.17881 101.835 5.12741 101.475 5.21111 101.135C5.29481 100.795 5.50677 100.503 5.80048 100.323C19.2459 92.1203 32.8802 92.1203 46.3256 100.323C46.5688 100.471 46.7576 100.698 46.8632 100.966C46.9687 101.235 46.9851 101.532 46.9099 101.812C46.8346 102.091 46.6718 102.338 46.4465 102.513C46.2212 102.689 45.9459 102.784 45.6628 102.784H45.6628Z" fill="#00B0FF"/>
<path d="M40.7088 113.751C40.4763 113.751 40.2481 113.686 40.0486 113.564C30.4929 107.735 21.2027 107.735 11.647 113.564C11.3526 113.743 11.0009 113.795 10.6692 113.708C10.3374 113.622 10.0527 113.404 9.87747 113.103C9.70225 112.802 9.65085 112.442 9.73454 112.102C9.81824 111.762 10.0302 111.47 10.3239 111.29C20.6251 105.006 31.0705 105.006 41.3716 111.29C41.6148 111.439 41.8037 111.665 41.9092 111.934C42.0148 112.203 42.0312 112.5 41.9559 112.779C41.8806 113.059 41.7178 113.305 41.4925 113.481C41.2672 113.656 40.9919 113.751 40.7088 113.751Z" fill="#00B0FF"/>
<path d="M49.5401 90.4319C49.3075 90.432 49.0793 90.3674 48.8798 90.2451C36.1617 82.4862 14.6722 82.4862 1.95419 90.2451C1.80838 90.3345 1.64679 90.3936 1.47867 90.4189C1.31055 90.4443 1.13919 90.4354 0.974413 90.3929C0.809637 90.3503 0.654675 90.2749 0.518393 90.1709C0.382112 90.067 0.267187 89.9365 0.180201 89.7871C0.0932139 89.6376 0.035871 89.472 0.0114557 89.2998C-0.0129597 89.1276 -0.00397009 88.9521 0.0379123 88.7835C0.0797947 88.6148 0.153748 88.4563 0.255536 88.317C0.357324 88.1776 0.484947 88.0602 0.631105 87.9714C14.0664 79.7747 36.7676 79.7747 50.2029 87.9714C50.446 88.1198 50.6349 88.3459 50.7404 88.6149C50.846 88.8838 50.8624 89.1809 50.7871 89.4603C50.7118 89.7397 50.549 89.9861 50.3238 90.1617C50.0985 90.3372 49.8232 90.4321 49.5401 90.4319H49.5401Z" fill="#00B0FF"/>
<path d="M261.809 241.215L264.538 252.392L252.532 255.745L251.44 244.009L261.809 241.215Z" fill="#FBBEBE"/>
<path d="M218.151 255.186V265.803L206.144 268.039L203.961 262.45L208.327 252.95L218.151 255.186Z" fill="#FBBEBE"/>
<path d="M242.163 139.509L240.525 154.597L241.617 183.656C241.617 183.656 243.254 183.656 243.254 185.333C243.254 187.009 241.617 186.45 243.254 187.568C244.132 188.179 245.043 188.738 245.983 189.244L263.446 243.45C263.446 243.45 259.08 249.039 250.894 247.362L249.257 241.774C249.257 241.774 245.983 238.421 245.983 236.744C245.983 235.068 247.074 234.509 245.983 232.833C244.891 231.156 228.519 197.068 228.519 197.068L220.879 183.097L218.696 202.097C218.696 202.097 223.062 226.127 221.971 237.303C220.879 248.48 218.696 260.215 218.696 260.215L205.599 257.98C205.539 256.176 204.971 254.43 203.962 252.95C202.324 250.715 200.142 251.274 202.324 249.597C204.507 247.921 207.236 249.597 205.053 247.362C202.87 245.127 202.87 242.892 202.87 242.892V241.215L199.596 198.186L193.593 141.744L242.163 139.509Z" fill="#2F2E41"/>
<path d="M205.053 37.8027C213.191 37.8027 219.788 31.0475 219.788 22.7144C219.788 14.3814 213.191 7.62616 205.053 7.62616C196.915 7.62616 190.318 14.3814 190.318 22.7144C190.318 31.0475 196.915 37.8027 205.053 37.8027Z" fill="#FBBEBE"/>
<path d="M217.878 22.994L223.88 38.0823L209.692 48.6999L200.96 33.0527L217.878 22.994Z" fill="#FBBEBE"/>
<path d="M218.696 34.4498L224.153 31.6557L227.428 39.4793C227.428 39.4793 248.711 46.1852 247.074 76.9205C245.437 107.656 241.617 119.391 241.617 119.391C241.617 119.391 250.894 139.509 245.437 141.744C239.979 143.98 193.592 152.362 192.501 144.538C191.41 136.715 196.321 90.8912 196.321 90.8912C196.321 90.8912 194.684 57.9205 208.327 51.2146L205.599 45.0675L218.696 34.4498Z" fill="#D0CDE1"/>
<path d="M188.681 142.862C188.681 142.862 176.129 156.274 183.224 159.627C190.318 162.98 194.684 144.538 194.684 144.538L188.681 142.862Z" fill="#FBBEBE"/>
<path d="M214.33 263.009L220.333 260.774C220.333 260.774 226.882 275.862 221.424 275.862H207.236C207.236 275.862 199.05 273.068 194.684 273.068C190.318 273.068 182.132 264.686 188.135 260.774C194.138 256.862 201.778 257.98 201.778 257.98L203.961 252.95L206.69 260.774C206.69 260.774 209.964 266.362 214.33 263.009Z" fill="#2F2E41"/>
<path d="M258.535 250.715C258.535 250.715 261.952 248.507 263.791 249.332C265.629 250.156 266.72 259.097 266.72 259.097C266.72 259.097 272.178 265.803 260.172 266.921C248.166 268.039 245.437 265.803 244.346 262.45C243.254 259.098 245.437 255.745 245.437 255.745L248.711 254.627C248.711 254.627 252.532 251.833 251.44 250.715C250.349 249.597 251.44 247.362 251.44 247.362C251.44 247.362 255.26 255.186 258.535 250.715Z" fill="#2F2E41"/>
<path d="M210.093 22.4727C210.033 21.9844 209.925 21.5034 209.772 21.0369C208.98 19.3356 205.89 19.8322 205.34 18.0337C205.232 17.6818 205.254 17.2989 205.149 16.9462C204.88 16.047 203.847 15.601 202.929 15.6442C202.012 15.6873 201.152 16.0889 200.269 16.3457C198.11 16.973 195.813 16.7335 193.582 16.489C192.595 16.3808 191.572 16.2602 190.727 15.7279C189.882 15.1956 189.273 14.124 189.581 13.1582C189.875 12.2322 190.865 11.7233 191.31 10.8624C192.017 9.49539 191.153 7.72982 191.726 6.29883C192.646 4.00329 196.125 4.46422 197.893 2.76751C198.322 2.35567 198.631 1.82919 199.043 1.39871C200.263 0.121516 202.19 -0.125722 203.926 0.0504751C205.663 0.226672 207.369 0.748807 209.114 0.717213C210.768 0.687249 212.503 0.171308 214.027 0.830309C214.952 1.23012 215.659 2.01218 216.335 2.77187L220.246 7.16343C220.783 7.68188 221.196 8.31966 221.454 9.02762C221.69 9.86906 221.473 10.7725 221.573 11.6417C221.802 13.624 223.615 15.1213 223.859 17.1016C223.908 17.7158 223.879 18.334 223.773 18.9405L223.225 23.076C223.198 23.4793 223.093 23.8731 222.917 24.2348C222.757 24.5135 222.516 24.7336 222.337 24.9992C221.831 25.7492 221.877 26.7405 221.625 27.615C221.374 28.4895 220.472 29.3549 219.682 28.9335C219.167 28.6585 218.827 26.3845 218.201 25.7941C217.33 24.9718 216.875 25.0732 215.799 25.0871C213.646 25.115 210.782 25.3041 210.093 22.4727Z" fill="#2F2E41"/>
<path d="M212.693 55.1263C212.693 55.1263 229.065 61.8322 224.154 76.9205C219.242 92.0088 206.145 138.391 206.145 138.391L198.504 142.303L196.321 148.45L185.953 144.538L187.59 136.156C187.59 136.156 188.136 135.597 188.136 133.362C188.136 131.127 185.953 130.568 188.681 130.568C191.41 130.568 191.41 127.774 191.41 127.774L201.233 65.1851C201.233 65.1851 201.233 54.5675 212.693 55.1263Z" fill="#D0CDE1"/>
<path opacity="0.1" d="M224.972 79.9939L208.055 139.229L200.96 146.494L205.053 138.95L224.972 79.9939Z" fill="black"/>
</g>
<defs>
<clipPath id="clip0">
<rect width="312" height="281" fill="white"/>
</clipPath>
</defs>
</svg>
