<svg width="303" height="209" viewBox="0 0 303 209" fill="none" xmlns="http://www.w3.org/2000/svg">
<path d="M152.421 135.811C149.726 108.046 142.736 124.242 139.578 135.811C141.122 143.215 143.957 159.53 142.947 165.559C138.596 166.088 130.863 168.772 134.736 175.277C137.543 177.921 144.084 181.623 147.789 175.277C149.684 177.459 154.652 180.037 159.368 172.897C160.14 171.509 160.294 168.098 154.736 165.559C151.649 163.179 146.863 153.898 152.421 135.811Z" fill="white" stroke="#D2CCCC"/>
<path d="M114.947 54.4994C110.568 31.0181 138.385 9.81099 152.841 2.14257C177.767 -6.74222 186.806 38.3692 188.209 62.0356C188.209 96.1468 157.052 115.186 157.052 129.861L152.841 135.811L149.473 126.292L145.683 142.951L143.578 129.861L139.789 135.811L130.525 123.118V121.135C115.704 105.27 113.964 70.1006 114.947 54.4994Z" fill="#937057" stroke="#64564D"/>
<path d="M160.63 18.4049C149.753 42.9967 132.293 94.0049 149.472 101.303C170.946 110.426 178.314 47.9548 175.577 44.1867C173.388 41.1722 167.647 47.5581 165.051 51.1279C159.086 60.3829 148.125 80.2018 151.998 85.4375C155.872 90.6731 162.314 82.3304 165.051 77.5046L169.051 68.7785" stroke="#6F533F" stroke-width="4"/>
<path d="M94.8609 154.834C79.9626 130.743 80.8941 148.204 83.2221 159.946C87.9429 166.042 97.8318 179.7 99.6207 185.566C95.9147 187.778 90.11 193.289 96.539 197.642C100.269 198.921 107.858 199.673 108.369 192.446C111.065 193.669 116.724 194.027 117.795 185.679C117.872 184.114 116.482 180.961 110.306 180.873C106.439 179.945 97.9379 173.439 94.8609 154.834Z" fill="white" stroke="#D2CCCC"/>
<path d="M24.42 96.0591C9.91708 76.5212 25.6142 46.2264 35.2756 33.5212C53.8804 15.5453 82.3103 52.8317 94.1996 73.7219C109.503 104.637 89.8056 134.297 96.3895 147.598L95.2426 154.666L87.9192 147.379L91.9584 163.986L84.1782 152.962L83.413 159.862L69.3235 152.047L68.4338 150.25C47.8837 141.771 30.5287 110.59 24.42 96.0591Z" fill="#937057" stroke="#64564D"/>
<path d="M49.6304 45.1588C50.8049 71.777 57.8647 124.957 76.7082 124.732C100.263 124.451 78.9145 64.8997 74.7437 62.5742C71.407 60.7138 69.0693 68.7868 68.3176 73.0558C67.0636 83.8184 66.0205 106.144 71.8801 109.347C77.7397 112.55 79.8355 102.424 80.1509 96.9612L79.8613 87.4602" stroke="#6F533F" stroke-width="4"/>
<path d="M210.083 155.3C220.097 129.063 206.496 140.959 198.444 150.187C196.522 157.512 191.772 173.427 188.151 178.489C183.971 177.236 175.758 176.59 176.351 184.027C177.708 187.542 181.975 193.501 188.18 189.224C188.919 191.955 192.265 196.27 199.742 191.677C201.064 190.726 202.735 187.696 198.836 183.183C197.105 179.796 196.932 169.479 210.083 155.3Z" fill="white" stroke="#D2CCCC"/>
<path d="M212.6 66.6873C219.166 43.6627 253.891 35.5171 270.433 34.3224C297.01 36.1937 284.963 80.677 275.618 102.685C260.315 133.6 223.535 138.451 216.951 151.751L210.466 155.467L211.684 145.499L200.776 159.088L204.74 146.387L198.636 150.271L195.935 135.08L196.825 133.282C190.51 113.002 204.711 80.4357 212.6 66.6873Z" fill="#937057" stroke="#64564D"/>
<path d="M270.196 52.1622C249.305 70.1196 210.598 109.398 222.893 122.851C238.262 139.669 272.966 85.9839 272.176 81.4793C271.544 77.8756 263.477 81.3779 259.522 83.5795C249.964 89.5926 231.139 103.191 232.301 109.478C233.462 115.765 243.044 110.769 247.689 107.485L255.229 101.169" stroke="#6F533F" stroke-width="4"/>
</svg>
