<svg width="254" height="232" viewBox="0 0 254 232" fill="none" xmlns="http://www.w3.org/2000/svg">
<path d="M31.3945 179.345C35.8941 179.775 46.3932 177.372 51.0803 176.117C57.984 175.733 79.7086 170.206 116.325 152.137C122.467 149.105 129.029 145.721 136.011 141.949C144.447 137.465 163.064 131.187 170.039 141.949C170.624 142.546 173.325 140.301 174.82 141.007C179.669 143.299 189.579 145.701 206.317 145.195C209.204 145.107 208.639 144.915 211.941 144.639C213.816 142.666 217.988 142.218 212.363 140.066H203.645C201.536 136.434 202.099 127.017 209.41 130.918C213.254 130.291 221.503 131.026 223.753 138.99C226.565 139.797 231.852 140.12 230.502 134.954C228.815 122.805 220.941 99.1773 202.942 101.863C186.294 102.293 177.257 105.988 174.82 107.781C176.17 91.4239 164.883 85.1823 159.071 84.1061C159.821 82.1332 161.883 78.7254 164.133 80.8777C166.383 83.03 180.819 83.9268 187.756 84.1061L196.755 90.0249C202.155 93.4686 217.004 95.7644 223.753 96.4818C239.502 84.429 249.813 96.8405 253 104.553V168.045L245.689 164.279C247.038 195.272 251.126 210.553 253 214.32V231H187.756H112.95L103.199 207.325C100.014 198.178 98.8887 193.335 97.2014 188.492C97.6513 179.883 92.5143 182.394 89.8895 184.726C72.791 200.222 59.1421 206.249 54.455 207.325C48.1556 210.338 36.4566 189.927 31.3945 179.345Z" fill="#95C04B"/>
<path d="M51.0803 176.117C46.3932 177.372 35.8941 179.775 31.3945 179.345C36.4566 189.927 48.1556 210.338 54.455 207.325M51.0803 176.117C56.0299 195.487 55.3925 204.993 54.455 207.325M51.0803 176.117C57.984 175.733 79.7086 170.206 116.325 152.137M54.455 207.325C59.1421 206.249 72.791 200.222 89.8895 184.726C92.5143 182.394 97.6513 179.883 97.2014 188.492C98.8887 193.335 100.014 198.178 103.199 207.325L112.95 231H187.756M196.755 90.0249C202.155 93.4686 217.004 95.7644 223.753 96.4818C239.502 84.429 249.813 96.8405 253 104.553V168.045L245.689 164.279C247.038 195.272 251.126 210.553 253 214.32V231H187.756M196.755 90.0249L187.756 84.1061C180.819 83.9268 166.383 83.03 164.133 80.8777C161.883 78.7254 159.821 82.1332 159.071 84.1061C164.883 85.1823 176.17 91.4239 174.82 107.781C177.257 105.988 186.294 102.293 202.942 101.863M196.755 90.0249C201.705 97.3427 202.942 100.966 202.942 101.863M202.942 101.863C220.941 99.1773 228.815 122.805 230.502 134.954C231.852 140.12 226.565 139.797 223.753 138.99C221.503 131.026 213.254 130.291 209.41 130.918C202.099 127.017 201.536 136.434 203.645 140.066H212.363C217.988 142.218 213.816 142.666 211.941 144.639C208.639 144.915 209.204 145.107 206.317 145.195M136.011 141.949C144.447 137.465 163.064 131.187 170.039 141.949C170.624 142.546 173.325 140.301 174.82 141.007M136.011 141.949C129.029 145.721 122.467 149.105 116.325 152.137M136.011 141.949L164.133 173.242M116.325 152.137C123.355 162.731 143.154 183.004 166.102 179.345C166.889 179.019 167.736 178.652 168.633 178.249M206.317 145.195C202.76 158.004 180.538 172.888 168.633 178.249M206.317 145.195C189.579 145.701 179.669 143.299 174.82 141.007M168.633 178.249L164.133 173.242M168.633 178.249C185.056 196.524 188.225 221.031 187.756 231M164.133 173.242C167.32 169.883 175.27 156.381 174.82 141.007" stroke="#4E7014"/>
<path d="M171.163 137.51C163.514 130.622 143.509 138.093 136.291 141.949L164.273 173.157C172.147 165.947 176.272 147.509 175.944 140.873C173.694 139.259 172.1 138.586 171.163 137.51Z" fill="#F3BF98" stroke="#8A614A"/>
<path d="M1.02183 171.543C0.646858 160.781 4.95899 137.806 25.2072 131.995C27.2695 129.394 54.3421 122.094 146.134 113.7C153.352 112.893 169.251 110.633 175.1 108.05C176.694 106.077 184.268 101.97 201.817 101.324C219.365 100.679 226.565 115.404 227.971 122.847C228.541 124.423 229.246 126.567 229.851 128.766C230.294 130.373 230.683 132.01 230.928 133.474C231.34 135.938 231.343 137.915 230.502 138.451C229.565 139.438 227.212 140.819 223.612 138.451C221.643 136.03 218.972 130.784 205.051 129.977C201.864 131.567 202.528 136.946 204.27 137.103C204.321 137.105 204.348 137.106 204.348 137.106L213.488 138.451C216.206 140.066 220.856 141.68 214.331 144.908C206.176 148.944 171.304 145.715 169.054 136.03C164.929 133.698 150.24 133.985 131.792 144.101C111.918 154.863 68.1222 176.278 51.9236 175.848C47.9864 177.372 38.481 180.26 31.9565 179.614C21.4152 180.062 0.470376 179.076 1.02183 171.543Z" fill="#F3BF98"/>
<path d="M227.971 122.847C226.565 115.404 219.365 100.679 201.817 101.324C184.268 101.97 176.694 106.077 175.1 108.05C169.251 110.633 153.352 112.893 146.134 113.7C54.3421 122.094 27.2695 129.394 25.2072 131.995C4.95899 137.806 0.646858 160.781 1.02183 171.543C0.470376 179.076 21.4152 180.062 31.9565 179.614C38.481 180.26 47.9864 177.372 51.9236 175.848C68.1222 176.278 111.918 154.863 131.792 144.101C150.24 133.985 164.929 133.698 169.054 136.03C171.304 145.715 206.176 148.944 214.331 144.908C220.856 141.68 216.206 140.066 213.488 138.451L204.348 137.106M227.971 122.847C229.096 130.165 224.596 126.345 223.049 123.52C222.754 121.148 220.067 117.815 216.581 115.314C213.426 113.051 209.003 111.984 206.598 110.472M227.971 122.847C228.541 124.423 229.246 126.567 229.851 128.766M204.348 137.106C202.548 137.106 201.817 131.591 205.051 129.977C218.972 130.784 221.643 136.03 223.612 138.451C227.212 140.819 229.565 139.438 230.502 138.451C231.343 137.915 231.34 135.938 230.928 133.474M204.348 137.106C204.348 137.106 199.736 136.891 197.599 137.106C195.461 137.322 194.739 134.012 194.083 133.474C188.009 125.013 176.647 128.469 172.148 128.766M175.804 121.233C182.365 124.013 196.614 126.399 201.114 113.7M206.176 117.467C209.551 118.005 216.848 119.571 220.237 124.596C221.708 126.777 224.217 130.385 226.424 131.591C228.437 132.691 230.247 131.64 229.851 128.766M229.851 128.766C230.294 130.373 230.683 132.01 230.928 133.474M206.176 123.923C211.8 125 216.3 125.538 220.94 129.977C225.581 134.416 225.578 135.402 226.705 136.03C227.833 136.658 231.269 136.595 230.928 133.474" stroke="#C98755"/>
<path d="M60.6982 66.0806C52.149 57.4715 35.2004 75.5866 27.7948 85.7203C22.3953 87.6574 17.8582 82.5816 16.2646 79.8015C14.4647 77.0035 17.0145 63.0316 18.5144 56.3953C29.5384 23.25 53.3298 8.77588 64.6354 5.2784C75.2654 -0.640398 95.2324 -0.207772 106.538 5.2784C122.062 12.8114 137.942 41.419 143.941 54.7811C147.091 72.6451 144.316 76.5731 142.535 76.304C138.71 75.6583 133.817 69.2194 131.848 66.0806C128.024 59.6238 122.38 59.6238 120.037 60.4309C111.488 61.9375 109.35 73.9724 109.35 79.8015C111.6 83.0299 108.413 83.4783 106.538 83.299C87.6397 81.3619 68.1038 71.013 60.6982 66.0806Z" fill="#AF6D55" stroke="#793B27"/>
<path d="M53.6112 113.7C36.0627 106.382 29.9882 91.6391 29.1445 85.1822V83.7025C37.1313 73.2639 44.3776 67.9639 47.0024 66.6187C55.2142 61.238 59.8919 64.3768 61.2043 66.6187C74.4781 75.8736 94.2014 81.3261 102.404 82.8954C108.928 84.1868 110.278 82.8954 110.138 82.0883C107.55 63.6862 117.59 59.6238 122.933 59.8928C127.658 58.7091 132.495 66.0358 134.323 69.8472C136.798 72.6451 140.791 75.3176 142.479 76.304C146.528 84.8056 157.477 85.7652 162.446 85.1822C175.494 90.9934 176.132 102.759 174.819 107.916C173.695 110.391 148.759 113.431 136.432 114.642C80.187 120.426 58.6732 123.565 55.0173 124.193L53.6112 113.7Z" fill="#F3BF98" stroke="#936C4F"/>
<path d="M73.12 95.1579C65.855 98.0277 51.6905 104.467 53.1529 107.265C54.6153 110.063 67.0736 100.359 73.12 95.1579Z" fill="#656565"/>
<path d="M61.871 107.937L76.0729 102.691C72.4639 105.292 64.852 110.547 63.2772 110.762C61.7023 110.977 61.6836 108.968 61.871 107.937Z" fill="#656565"/>
<path d="M122.651 79.936C121.854 84.0613 122.82 91.4239 126.307 84.6442C126.722 83.8368 126.096 80.6535 126.307 79.936H122.651Z" fill="#656565"/>
<path d="M113.757 72.6934C115.398 67.9404 119.804 59.7796 124.303 65.1604C128.803 70.5411 129.74 81.7509 129.646 86.6833C129.318 87.8043 127.79 90.5574 124.303 92.6021C120.816 94.6468 119.85 89.5082 119.804 86.6833M121.245 68.3675C123.516 69.197 125.463 73.7482 126.307 79.936M126.307 79.936C126.096 80.6535 126.722 83.8368 126.307 84.6442C122.82 91.4239 121.854 84.0613 122.651 79.936H126.307ZM73.12 95.1579C65.855 98.0277 51.6905 104.467 53.1529 107.265C54.6153 110.063 67.0736 100.359 73.12 95.1579ZM76.0729 102.691L61.871 107.937C61.6836 108.968 61.7023 110.977 63.2772 110.762C64.852 110.547 72.4639 105.292 76.0729 102.691Z" stroke="#323232"/>
<path d="M36.8787 115.987C32.7072 115.269 24.8141 113.054 26.6139 109.934C28.4138 106.813 34.207 112.669 36.8787 115.987Z" fill="#41B7C7"/>
<path d="M26.6139 122.847C22.3955 122.309 14.4649 120.534 16.4898 117.736C18.5146 114.938 24.0829 119.978 26.6139 122.847Z" fill="#41B7C7"/>
<path d="M14.8023 129.842C12.4588 132.129 7.3217 135.842 5.52186 132.398C3.72201 128.954 10.9589 129.259 14.8023 129.842Z" fill="#41B7C7"/>
<path d="M24.5046 184.322C23.0516 188.761 19.4707 197.101 16.7709 194.949C14.0711 192.797 20.8018 186.968 24.5046 184.322Z" fill="#41B7C7"/>
<path d="M31.254 191.721C31.5821 193.963 31.6757 198.474 29.4261 198.581C27.1764 198.689 29.7073 194.052 31.254 191.721Z" fill="#41B7C7"/>
</svg>
