<svg width="288" height="228" viewBox="0 0 288 228" fill="none" xmlns="http://www.w3.org/2000/svg">
<path d="M287 140.813V222.973V227H215.906L150.972 193.706C148.834 191.432 139.885 186.705 121.2 185.998C107.071 189.736 91.091 192.409 80.9056 193.706C76.9702 192.274 69.972 188.122 73.4626 182.967C74.4141 181.561 74.281 180.869 73.4626 180.663C71.2788 180.115 63.3405 182.967 58.464 182.967C50.8499 181.714 43.4406 181.897 46.2571 170.884C47.4971 166.036 48.7911 164.699 49.5432 164.403C48.7227 164.491 47.4044 165.116 46.2571 165.783C38.5575 167.931 23.8255 167.609 26.4948 149.136C19.0517 145.825 7.2969 136.087 19.8217 123.629L24.1848 125.24C22.9528 119.655 27.4357 114.321 29.8312 112.352C23.6715 94.9535 38.0354 92.5728 45.9873 93.5573C49.8326 79.205 60.9266 82.9356 66.5329 87.1134C65.3009 85.6098 67.0462 82.7279 68.0728 81.4749C62.3409 82.8174 50.9796 83.6229 51.3902 76.105L64.993 63.2172C67.9017 58.9212 74.5919 50.9737 78.0824 53.5513L90.4018 56.7958C87.5786 51.1499 84.2934 39.2673 93.7383 36.9045C99.0425 41.9165 111.242 51.8329 117.607 51.4033C123.853 59.308 135.843 73.5036 141.991 77.7189C143.088 78.171 144.121 78.5633 145.069 78.8809C146.017 79.1986 146.88 79.4417 147.636 79.5955C155.028 81.099 161.324 89.5298 163.549 93.5573L287 140.813Z" fill="#FAD7B1"/>
<path d="M287 222.973V140.813L163.549 93.5573C161.324 89.5298 155.028 81.099 147.636 79.5955C146.88 79.4417 146.017 79.1986 145.069 78.8809M287 222.973L183.311 170.884C175.355 167.215 157.491 162.507 149.689 173.032C145.926 178.109 134.367 182.516 121.2 185.998M287 222.973V227H215.906L150.972 193.706C148.834 191.432 139.885 186.705 121.2 185.998M26.4948 149.136C23.8255 167.609 38.5575 167.931 46.2571 165.783C47.682 164.955 49.3705 164.192 50.0418 164.44M26.4948 149.136C19.0517 145.825 7.2969 136.087 19.8217 123.629L24.1848 125.24M26.4948 149.136C28.2058 152 37.2742 154.076 59.8599 139.47M24.1848 125.24L26.4948 127.656L43.6906 123.629M24.1848 125.24C22.9528 119.655 27.4357 114.321 29.8312 112.352M43.6906 123.629C50.2781 129.715 64.069 137.752 66.5329 121.212M43.6906 123.629L29.8312 112.352M66.5329 121.212L85.5254 131.147C89.3752 131.684 96.9209 129.912 96.3049 118.527M66.5329 121.212V117.185L44.9738 99.1957C45.2049 97.0639 45.5491 95.1931 45.9873 93.5573M96.3049 118.527C100.839 120.407 109.805 120.89 109.394 107.788C109.651 106.356 107.7 101.236 97.8448 92.2148L100.411 88.9928L85.5254 77.4475C81.8467 75.21 73.2059 72.883 68.0728 81.4749M96.3049 118.527C96.5896 114.446 88.3816 108.593 84.2421 106.177C69.2534 95.65 66.1907 89.0817 66.5329 87.1134M68.0728 81.4749C62.3409 82.8174 50.9796 83.6229 51.3902 76.105L64.993 63.2172C67.9017 58.9212 74.5919 50.9737 78.0824 53.5513L90.4018 56.7958M68.0728 81.4749C67.0462 82.7279 65.3009 85.6098 66.5329 87.1134M50.0418 164.44C50.8217 164.729 48.4545 162.292 46.2571 170.884C43.4406 181.897 50.8499 181.714 58.464 182.967C63.3405 182.967 71.2788 180.115 73.4626 180.663M50.0418 164.44L68.0728 160.681M73.4626 180.663C74.281 180.869 74.4141 181.561 73.4626 182.967C69.972 188.122 76.9702 192.274 80.9056 193.706C91.091 192.409 107.071 189.736 121.2 185.998M73.4626 180.663L90.4018 178.939M90.4018 56.7958L114.784 63.2172C121.85 67.5558 136.748 76.0924 145.069 78.8809M90.4018 56.7958C87.5786 51.1499 84.2934 39.2673 93.7383 36.9045C99.0426 41.9165 111.242 51.8329 117.607 51.4033C125.221 61.0403 141.374 80.0277 145.069 78.8809M66.5329 87.1134C60.9266 82.9356 49.8327 79.205 45.9873 93.5573M45.9873 93.5573C38.0354 92.5728 23.6715 94.9535 29.8312 112.352" stroke="#ED922B"/>
<path d="M150.603 54.5513C156.726 54.5513 161.613 49.3724 161.613 43.08C161.613 36.7875 156.726 31.6086 150.603 31.6086C144.481 31.6086 139.594 36.7875 139.594 43.08C139.594 49.3724 144.481 54.5513 150.603 54.5513Z" fill="#75DBE8" stroke="white" stroke-width="2"/>
<path d="M57.1806 26.0907C59.4799 26.0907 61.0038 23.8716 61.0038 21.6002C61.0038 19.3288 59.4799 17.1098 57.1806 17.1098C54.8814 17.1098 53.3574 19.3288 53.3574 21.6002C53.3574 23.8716 54.8814 26.0907 57.1806 26.0907Z" fill="#75DBE8" stroke="white" stroke-width="2"/>
<path d="M11.4962 69.5871C17.3352 69.5871 21.9925 64.6487 21.9925 58.6528C21.9925 52.6569 17.3352 47.7184 11.4962 47.7184C5.6573 47.7184 1 52.6569 1 58.6528C1 64.6487 5.6573 69.5871 11.4962 69.5871Z" fill="#75DBE8" stroke="white" stroke-width="2"/>
<path d="M52.0481 59.3843C56.9741 59.3843 61.0044 55.4707 61.0044 50.5979C61.0044 45.725 56.9741 41.8115 52.0481 41.8115C47.1221 41.8115 43.0918 45.725 43.0918 50.5979C43.0918 55.4707 47.1221 59.3843 52.0481 59.3843Z" fill="#75DBE8" stroke="white" stroke-width="2"/>
<path d="M11.4962 113.621C17.3098 113.621 21.9925 108.828 21.9925 102.955C21.9925 97.0808 17.3098 92.2888 11.4962 92.2888C5.68271 92.2888 1 97.0808 1 102.955C1 108.828 5.68271 113.621 11.4962 113.621Z" fill="#75DBE8" stroke="white" stroke-width="2"/>
<path d="M104.661 22.3317C110.359 22.3317 114.901 17.5135 114.901 11.6659C114.901 5.81826 110.359 1 104.661 1C98.9643 1 94.4219 5.81826 94.4219 11.6659C94.4219 17.5135 98.9643 22.3317 104.661 22.3317Z" fill="#75DBE8" stroke="white" stroke-width="2"/>
<path d="M170.879 80.327C174.308 80.327 177.012 77.4321 177.012 73.957C177.012 70.482 174.308 67.5871 170.879 67.5871C167.45 67.5871 164.746 70.482 164.746 73.957C164.746 77.4321 167.45 80.327 170.879 80.327Z" fill="#75DBE8" stroke="white" stroke-width="2"/>
</svg>
