<svg width="281" height="233" viewBox="0 0 281 233" fill="none" xmlns="http://www.w3.org/2000/svg">
<path d="M27.9107 141.687C53.0511 150.55 63.5435 144.121 65.6471 139.799L75.8219 144.079C83.9618 140.655 102.568 151.884 110.854 157.927C93.5439 168.803 99.6916 174.544 104.929 176.054C103.281 177.263 100.293 176.558 99.0047 176.054C90.968 170.415 84.494 174.879 82.2616 177.817C68.661 202.39 78.3119 223.64 84.8375 231.193H12.4556C18.2256 223.338 19.9699 195.861 20.1208 183.104C19.1441 188.99 17.7492 193.213 16.8345 195.189C13.1253 192.168 4.81375 193.93 1.12163 195.189C0.709491 180.687 3.6975 162.291 5.24302 154.905C9.36441 137.986 22.072 139.043 27.9107 141.687Z" fill="#A58282"/>
<path d="M21.2135 166.487C21.3946 172.859 20.8862 178.492 20.1208 183.104M20.1208 183.104C19.1441 188.99 17.7492 193.213 16.8345 195.189C13.1253 192.168 4.81375 193.93 1.12163 195.189C0.709491 180.687 3.6975 162.291 5.24302 154.905C9.36441 137.986 22.072 139.043 27.9107 141.687C53.0511 150.55 63.5435 144.121 65.6471 139.799L75.8219 144.079C83.9618 140.655 102.568 151.884 110.854 157.927C93.5439 168.803 99.6916 174.544 104.929 176.054C103.281 177.263 100.293 176.558 99.0047 176.054C90.968 170.415 84.494 174.879 82.2616 177.817C68.661 202.39 78.3119 223.64 84.8375 231.193H12.4556C18.2256 223.338 19.9699 195.861 20.1208 183.104Z" stroke="#5F4848"/>
<path d="M36.6678 109.082C36.6678 98.8098 44.7389 95.4025 48.7744 94.9828C57.0172 94.9828 61.482 102.368 62.6841 106.061C65.7751 111.298 66.2044 114.789 66.0327 115.88C65.0024 132.598 57.4036 136.19 53.2822 136.274C44.4212 137.281 37.3547 125.532 35.3799 119.153C36.4102 116.132 36.6678 111.18 36.6678 109.082Z" fill="#F3BE96" stroke="black"/>
<path d="M54.2932 118.369C54.4762 118.83 54.6958 119.886 54.1097 120.419C53.3772 121.085 52.4215 122.097 49.5075 121.361C49.1121 121.125 48.502 120.352 49.2247 119.15" stroke="#EDA77B" stroke-width="2"/>
<path d="M58.5638 125.433C52.2146 124.527 48.2425 126.428 46.7148 127.594C46.9867 127.932 46.9384 127.8 46.9384 127.8C52.1922 132.844 56.8871 129.035 58.5638 125.433Z" fill="#CE3B3B" stroke="#9D2929"/>
<path d="M47.8741 109.334C41.692 105.406 35.6816 108.789 33.4492 110.971L37.8282 118.146C38.5494 118.65 42.1642 118.356 43.8815 118.146C47.3847 117.844 48.4322 112.817 48.518 110.341H50.0636L54.5713 115.754C59.9291 116.359 62.8141 114.495 63.5869 113.488V105.935C55.138 103.719 51.051 107.278 50.0636 109.334H47.8741Z" fill="#B5D0D3" stroke="black" stroke-width="2"/>
<path d="M57.2751 126.203L48.002 127.694C49.9974 127.373 50.1148 128.39 51.7582 128.191C56.4534 127.623 56.1013 126.392 57.2751 126.203Z" fill="white" stroke="#9D2929"/>
<path d="M41 116.611C42.1591 116.779 44.6835 116.334 45.5078 113.212C46.332 110.09 42.846 114.178 41 116.611Z" fill="#E0E6E7"/>
<path d="M61.3494 112.331C60.5251 113.137 58.8594 113.674 58.1295 113.842C59.2629 108.907 60.7483 108.68 61.3494 109.184V112.331Z" fill="#E0E6E7"/>
<path d="M41 116.611C42.1591 116.779 44.6835 116.334 45.5078 113.212C46.332 110.09 42.846 114.178 41 116.611Z" stroke="#84B7BD"/>
<path d="M61.3494 112.331C60.5251 113.137 58.8594 113.674 58.1295 113.842C59.2629 108.907 60.7483 108.68 61.3494 109.184V112.331Z" stroke="#84B7BD"/>
<path d="M27.2666 106.942C32.2123 86.3973 44.6108 82.7718 50.1918 83.5271C55.1374 82.2179 61.3539 87.7653 63.844 90.7027C66.3168 92.8176 71.9151 106.942 74.4051 113.74C76.8779 119.178 76.2082 127.084 75.5642 130.357C74.946 137.004 65.1749 138.078 60.3666 137.785C58.512 138.087 62.1697 130.273 64.2304 126.329C67.5275 116.56 65.6042 110.509 64.2304 108.705V105.432L62.2985 104.928C58.3832 95.3605 50.7071 94.3954 47.3584 95.1087C38.7035 97.4251 36.5398 104.718 36.5398 108.075C33.8609 108.982 32.8477 110.299 32.676 110.845L36.0246 116.51L35.5095 119.153C36.5398 123.182 39.8026 128.049 41.3052 129.98C42.1294 131.692 41.6915 133.504 41.3052 134.26L39.2445 136.4L36.9262 138.54L31.5168 141.561C20.286 138.238 19.9683 126.161 21.2133 120.538C24.3043 118.322 26.5368 110.551 27.2666 106.942Z" fill="#231B0F"/>
<path d="M65.5184 139.799C58.3059 150.474 37.0979 145.422 27.3955 141.561H31.6457C33.5347 140.596 37.3126 138.49 37.3126 137.785C42.1552 134.763 41.9921 131.406 41.3052 130.105C46.56 136.249 51.7375 136.778 53.6694 136.274C57.7907 136.475 60.8818 132.749 61.9121 130.861C59.0272 137.004 59.508 138.036 60.109 137.785H62.9425C63.7152 139.169 64.6168 139.421 65.5184 139.799Z" fill="#F3BE96" stroke="#6A3F30"/>
<path d="M16.8342 195.189C12.7128 192.168 4.64177 193.93 1.12142 195.189C0.649177 200.686 1.30173 212.008 7.68988 213.317L29.456 223.892C32.7188 225.78 39.6565 229.179 41.305 227.668L55.7299 226.661L61.5256 220.115L60.4953 211.177L55.7299 210.422L56.5027 213.317L53.2828 218.478C53.2828 217.01 52.6389 214.349 50.063 215.457C47.4871 216.565 46.2421 217.094 45.9416 217.22C44.0658 217.232 40.6535 217.66 38.0852 219.049L37.1836 218.478C24.5103 210.825 18.3368 202.952 16.8342 199.973V195.189Z" fill="#F3BE96"/>
<path d="M53.2828 218.478L56.5027 213.317L55.7299 210.422L60.4953 211.177L61.5256 220.115L55.7299 226.661L41.305 227.668C39.6565 229.179 32.7188 225.78 29.456 223.892L7.68988 213.317C1.30173 212.008 0.649177 200.686 1.12142 195.189C4.64177 193.93 12.7128 192.168 16.8342 195.189V199.973C18.3368 202.952 24.5103 210.825 37.1836 218.478L38.0852 219.049M53.2828 218.478L45.9416 221.5M53.2828 218.478C53.2828 217.01 52.6389 214.349 50.063 215.457C47.4871 216.565 46.2421 217.094 45.9416 217.22C44.0658 217.232 40.6535 217.66 38.0852 219.049M35.3805 221.5C35.9804 220.464 36.9504 219.663 38.0852 219.049" stroke="#8F6D54"/>
<path d="M53.4118 218.353C53.4547 217.052 52.9481 214.626 50.5783 215.331L48.26 216.275L45.9417 217.22C44.6109 217.136 41.1764 217.345 38.0853 218.856C32.1609 215.289 19.7194 206.645 17.3496 200.602V198.148V195.693C17.4014 195.338 17.4918 194.905 17.6258 194.434C17.9115 193.429 18.3954 192.25 19.1263 191.287C19.7567 190.456 20.5707 189.785 21.5998 189.524C27.7389 195.903 42.7992 208.76 53.9269 209.163L55.9701 211.681L56.5028 213.317L55.5539 214.863L54.2186 217.038L53.4118 218.353Z" fill="#F1D263"/>
<path d="M45.9417 231.067L42.3355 227.668L54.6997 226.73L55.6012 226.661L60.6242 220.996L65.5183 231.067H61.9121H59.4651H57.018H45.9417Z" fill="#F1D263"/>
<path d="M55.6013 210.548L55.9701 211.681M55.9701 211.681L56.5028 213.317L55.5539 214.863M55.9701 211.681L53.9269 209.163C42.7992 208.76 27.7389 195.903 21.5998 189.524C20.5707 189.785 19.7567 190.456 19.1263 191.287M19.1263 191.287C24.6732 197.581 39.1157 210.245 52.5102 210.548L55.5539 214.863M19.1263 191.287C18.3954 192.25 17.9115 193.429 17.6258 194.434M55.5539 214.863L54.2186 217.038M17.6258 194.434C17.4918 194.905 17.4014 195.338 17.3496 195.693V198.148M17.6258 194.434C23.0289 200.057 37.0808 211.706 50.0631 213.317L54.2186 217.038M54.2186 217.038L53.4118 218.353C53.4547 217.052 52.9481 214.626 50.5783 215.331L48.26 216.275M17.3496 198.148V200.602C19.7194 206.645 32.1609 215.289 38.0853 218.856C41.1764 217.345 44.6109 217.136 45.9417 217.22L48.26 216.275M17.3496 198.148C24.4762 204.032 40.5067 215.706 47.6161 215.331L48.26 216.275M54.6997 226.73L55.6013 226.661L60.6242 220.996L65.5183 231.067H61.9121H59.4651M54.6997 226.73L42.3355 227.668L45.9417 231.067H57.018M54.6997 226.73L57.018 231.067M57.018 231.067H59.4651M57.018 225.528L59.4651 231.067M58.8211 223.64L62.5561 230.815" stroke="#917D38"/>
<path d="M104.929 176.054C92.5648 171.321 103.813 162.081 110.982 158.052L114.235 160.318C114.122 158.106 114.138 155.816 114.202 154.15C114.305 145.791 107.376 128.763 103.899 121.293C100.499 119.883 99.6485 110.635 99.6485 106.187C99.8546 105.683 101.452 103.375 102.224 102.284L100.292 96.7453C99.6743 93.724 101.58 94.1436 102.611 94.7311C104.568 100.27 107.119 103.585 108.149 104.55C108.973 102.939 107.548 95.99 106.732 92.7169C106.732 90.602 108.106 90.7446 108.793 91.0803C109.136 91.4492 109.597 92.6067 110.094 94.1334C110.367 92.2292 111.254 92.7169 112.141 92.7169C112.863 92.7169 114.736 97.2488 115.582 99.5148C115.428 98.4666 115.249 97.4681 115.104 96.7453C115.619 95.1339 116.263 96.0739 116.52 96.7453C120.23 104.299 119.268 113.237 118.324 116.761C115.954 119.682 117.336 124.273 118.324 126.203C129.039 150.877 130.859 170.641 130.43 177.439C128.782 178.547 112.742 176.978 104.929 176.054Z" fill="#F3BE96"/>
<path d="M115.748 104.55C116.089 103.817 115.884 101.57 115.582 99.5148M115.582 99.5148C115.428 98.4666 115.249 97.4681 115.104 96.7453C115.619 95.1339 116.263 96.0739 116.52 96.7453C120.23 104.299 119.268 113.237 118.324 116.761C115.954 119.682 117.336 124.273 118.324 126.203C129.039 150.877 130.859 170.641 130.43 177.439C128.782 178.547 112.742 176.978 104.929 176.054C92.5648 171.321 103.813 162.081 110.982 158.052L114.235 160.318M115.582 99.5148C114.736 97.2488 112.863 92.7169 112.141 92.7169C111.24 92.7169 110.338 92.2133 110.081 94.2275C111.343 96.4888 113.618 101.618 112.838 104.382M112.785 104.55C112.804 104.495 112.822 104.439 112.838 104.382M112.838 104.382C111.919 100.41 109.823 92.1882 108.793 91.0803C108.106 90.7446 106.732 90.602 106.732 92.7169C107.548 95.99 108.973 102.939 108.149 104.55C107.119 103.585 104.568 100.27 102.611 94.7311C101.58 94.1436 99.6743 93.724 100.292 96.7453L102.224 102.284M102.224 102.284C103.313 101.793 105.29 101.757 104.721 105.395M102.224 102.284C101.452 103.375 99.8546 105.683 99.6485 106.187C99.6485 110.635 100.499 119.883 103.899 121.293C107.376 128.763 114.305 145.791 114.202 154.15C114.138 155.816 114.122 158.106 114.235 160.318M104.671 105.683C104.69 105.585 104.706 105.489 104.721 105.395M104.721 105.395C104.639 106.174 104.263 107.446 103.384 107.522M102.611 107.32C102.903 107.483 103.16 107.541 103.384 107.522M103.384 107.522L103.899 110.215C105.315 110.719 108.149 112.456 108.149 115.377M116.263 167.494C114.974 167.494 114.424 164.014 114.235 160.318" stroke="#A87C5B"/>
<path d="M149.499 157.352C140.741 132.477 130.91 128.356 127.089 129.405C135.228 124.269 148.168 122.901 153.62 122.859C164.13 127.794 177.661 152.359 183.114 164.024C191.872 168.556 214.067 167.339 224.07 166.164C238.804 161.733 243.947 165.157 244.677 167.423C249.271 174.137 256.371 190.813 248.026 203.805C239.68 216.796 236.906 227.681 236.563 231.5L125.285 230.871C128.892 226.943 123.01 201.958 119.619 189.957C118.279 161.859 138.981 156.513 149.499 157.352Z" fill="#717EAE" stroke="black"/>
<path d="M140.355 70.2381C132.73 63.7927 135.46 54.4602 137.779 50.5997C132.215 24.8179 161.047 24.3731 176.417 24.0374C198.054 30.08 205.867 43.3821 206.812 52.6139C204.545 90.6823 198.14 98.0173 195.221 96.9263C188.832 103.775 172.467 102.969 165.083 101.71C151.688 77.5396 143.016 70.6578 140.355 70.2381Z" fill="#303030" stroke="black"/>
<path d="M140.612 70.7417L147.31 75.2736C151.535 78.1327 161.262 94.4249 165.598 102.214C185.587 104.026 192.988 99.9476 194.19 97.6816C188.833 109.565 194.19 113.711 197.539 114.299C170.21 111.005 157.957 117.296 154.332 121.81C154.125 122.265 153.849 122.703 153.492 123.111C153.688 122.703 153.966 122.266 154.332 121.81C155.556 119.119 154.373 115.806 153.492 114.299C144.425 108.659 142.071 95.4995 142.028 89.6248C140.941 84.5759 140.612 75.9978 140.612 70.7417Z" fill="#F3BE96"/>
<path d="M147.31 75.2736C147.653 80.9805 147.567 92.6461 144.476 93.6532C143.402 94.0033 142.607 92.315 142.028 89.6248M147.31 75.2736L140.612 70.7417C140.612 75.9978 140.941 84.5759 142.028 89.6248M147.31 75.2736C151.535 78.1327 161.262 94.4249 165.598 102.214C185.587 104.026 192.988 99.9476 194.19 97.6816C188.833 109.565 194.19 113.711 197.539 114.299C167.453 110.673 155.638 118.663 153.492 123.111C155.964 120.291 154.522 116.061 153.492 114.299C144.425 108.659 142.071 95.4995 142.028 89.6248" stroke="#9B775C"/>
<path d="M153.748 122.859C156.754 117.74 169.616 108.86 197.023 114.299C201.743 112.641 211.848 110.896 219.175 115.032C223.418 114.532 229.559 114.177 236.047 114.424C238.314 110.195 234.03 101.962 231.54 98.4369C227.83 94.6099 228.105 90.1284 228.706 88.3659L226.13 84.5893C218.3 77.3382 221.665 73.1755 224.327 72.0006C227.676 68.8953 235.97 63.0877 242.358 64.6991L248.774 75.7772L250.086 78.0432C251.288 77.8753 254.465 78.9495 257.556 84.5893C267.43 99.444 285.427 132.124 278.42 144.008C276.188 150.219 265.052 158.082 246.093 169.563C242.873 165.157 240.298 162.01 224.327 166.164C214.796 167.255 193.211 168.43 183.113 164.402C177.189 152.317 163.021 127.089 153.748 122.859Z" fill="#11AEDE"/>
<path d="M144.99 157.352C134.481 133.988 126.702 132.343 124.126 134.441C105.992 133.434 97.1651 198.476 95.0186 231.122H125.414C128.711 225.885 122.838 201.581 119.489 190.083C117.841 166.114 135.803 158.275 144.99 157.352Z" fill="#11AEDE"/>
<path d="M222.524 117.572C221.507 116.549 220.379 115.711 219.175 115.032M219.175 115.032C211.848 110.896 201.743 112.641 197.023 114.299C169.616 108.86 156.754 117.74 153.748 122.859C163.021 127.089 177.189 152.317 183.113 164.402C193.211 168.43 214.796 167.255 224.327 166.164C240.297 162.01 242.873 165.157 246.093 169.563C265.052 158.082 276.188 150.219 278.42 144.008C285.427 132.124 267.43 99.444 257.556 84.5893C254.465 78.9495 251.288 77.8753 250.086 78.0432L248.774 75.7772M219.175 115.032C230.509 113.697 255.392 113.392 264.253 122.859M228.706 88.3659L226.13 84.5893C218.3 77.3382 221.665 73.1755 224.327 72.0006C227.676 68.8953 235.97 63.0877 242.358 64.6991L248.774 75.7772M228.706 88.3659C228.105 90.1284 227.83 94.6099 231.54 98.4369C234.03 101.962 238.314 110.195 236.047 114.424M228.706 88.3659C231.352 83.4144 239.069 73.9644 248.774 75.7772M124.126 134.441C126.702 132.343 134.481 133.988 144.99 157.352C135.803 158.275 117.841 166.114 119.489 190.083C122.838 201.581 128.711 225.885 125.414 231.122H95.0186C97.1651 198.476 105.992 133.434 124.126 134.441Z" stroke="#1B4259"/>
<path d="M224.922 72.2523C234.536 64.7179 240.553 64.4824 242.359 65.3065L237.764 57.5366C240.686 55.653 240.317 40.9766 239.767 33.8739C240.238 30.5776 239.964 20.1 239.767 15.2733C238.825 9.81081 235.542 12.3694 234.018 14.3315C233.592 11.3096 233.111 8.48726 232.698 6.32614C230.625 1.89967 227.545 4.48178 226.264 6.32614C226.071 5.21157 225.893 4.34347 225.747 3.73618C223.296 -1.53791 220.17 2.00955 218.914 4.44254C219.738 12.5656 221.27 29.3532 220.799 31.5194C220.327 33.6855 218.874 33.2067 218.207 32.6966C218.05 28.537 217.476 18.2399 216.439 10.3288C215.403 2.41766 211.609 6.16917 209.842 9.03382C208.993 11.2 210.195 31.0485 210.902 40.7019C208.923 38.4416 208.534 35.2081 208.587 33.8739C208.968 32.9006 207.866 30.9995 207.839 29.9541C202.843 22.043 201.516 28.537 200.888 32.6966L207.839 57.5366C217.453 61.8689 223.234 69.1522 224.922 72.2523Z" fill="#F3BE96"/>
<path d="M208.358 34.8637C208.686 34.8936 208.41 34.3254 208.587 33.8739M208.587 33.8739C208.968 32.9006 207.866 30.9995 207.839 29.9541C202.843 22.043 201.516 28.537 200.888 32.6966L207.839 57.5366C217.453 61.8689 223.234 69.1522 224.922 72.2523C234.536 64.7179 240.553 64.4824 242.359 65.3065L237.764 57.5366C240.686 55.653 240.317 40.9766 239.767 33.8739C240.238 30.5776 239.964 20.1 239.767 15.2733C238.825 9.81081 235.542 12.3694 234.018 14.3315M208.587 33.8739C208.534 35.2081 208.923 38.4416 210.902 40.7019C210.195 31.0485 208.993 11.2 209.842 9.03382C211.609 6.16917 215.403 2.41766 216.439 10.3288C217.476 18.2399 218.05 28.537 218.207 32.6966C218.874 33.2068 220.327 33.6855 220.799 31.5194C221.27 29.3532 219.738 12.5656 218.914 4.44254C220.17 2.00955 223.296 -1.53791 225.747 3.73618C225.893 4.34347 226.071 5.21157 226.264 6.32614M228.339 31.5194C228.112 19.6296 227.056 10.9013 226.264 6.32614M226.264 6.32614C227.545 4.48178 230.625 1.89967 232.698 6.32614C233.111 8.48726 233.592 11.3096 234.018 14.3315M234.112 33.8739C235.884 31.4898 235.134 22.229 234.018 14.3315" stroke="#86644B"/>
<path d="M129.02 129.657C125.517 128.448 123.783 132.259 123.354 134.315C127.063 133.106 129.879 134.818 130.824 135.826C135.978 139.149 142.33 151.478 144.862 157.226H149.756C140.38 134.567 132.026 129.405 129.02 129.657Z" fill="#616161" stroke="#3E3E3E"/>
<path d="M161.476 192.853L166.113 174.725C169.822 169.488 172.638 173.382 173.583 175.984L168.946 194.615L161.476 192.853Z" fill="#C4C4C4"/>
<path d="M202.175 198.392L204.236 175.984C208.151 168.531 210.847 172.878 211.706 175.984L209.645 198.392H202.175Z" fill="#C4C4C4"/>
<path d="M167.916 197.636L161.476 196.377C160.704 197.049 159.261 199.55 159.673 204.182C160.085 208.815 165.34 206.952 167.916 205.441V197.636Z" fill="#C4C4C4"/>
<path d="M209.645 202.42H202.175C201.316 203.007 200.114 205.089 202.175 208.714C204.236 212.34 208.014 210.225 209.645 208.714V202.42Z" fill="#C4C4C4"/>
<path d="M161.476 192.853L166.113 174.725C169.822 169.488 172.638 173.382 173.583 175.984L168.946 194.615L161.476 192.853Z" stroke="#797979"/>
<path d="M202.175 198.392L204.236 175.984C208.151 168.531 210.847 172.878 211.706 175.984L209.645 198.392H202.175Z" stroke="#797979"/>
<path d="M167.916 197.636L161.476 196.377C160.704 197.049 159.261 199.55 159.673 204.182C160.085 208.815 165.34 206.952 167.916 205.441V197.636Z" stroke="#797979"/>
<path d="M209.645 202.42H202.175C201.316 203.007 200.114 205.089 202.175 208.714C204.236 212.34 208.014 210.225 209.645 208.714V202.42Z" stroke="#797979"/>
<path d="M160.674 206.066C160.641 206.016 160.657 205.975 160.704 205.945L160.674 206.066C160.823 206.293 161.976 206.709 165.856 207.204L160.704 231.122H154.522L160.674 206.066Z" fill="#646464"/>
<path d="M210.161 208.714C208.1 209.923 205.524 210.393 204.494 210.477C202.021 220.145 203.463 228.269 204.494 231.122H211.448C206.915 229.914 208.701 215.68 210.161 208.714Z" fill="#646464"/>
<path d="M211.448 180.516V175.732L233.858 171.703C240.041 171.301 237.465 174.221 235.404 175.732L211.448 180.516Z" fill="#646464"/>
<path d="M203.206 180.516L204.494 175.732C198.93 173.818 187.75 178.124 182.856 180.516C181.419 176.89 176.075 176.487 173.583 176.739L172.553 180.516C176.674 179.106 181.139 184.124 182.856 186.81C188.626 180.163 198.827 179.844 203.206 180.516Z" fill="#646464"/>
<path d="M164.568 178.501L165.856 173.969C161.133 171.2 150.349 165.409 144.991 164.402C139.633 163.395 141.041 167.171 142.415 169.186L164.568 178.501Z" fill="#646464"/>
<path d="M160.704 205.945C160.446 206.113 161.116 206.599 165.856 207.204L160.704 231.122H154.522L160.704 205.945ZM204.494 210.477C205.524 210.393 208.1 209.923 210.161 208.714C208.701 215.68 206.915 229.914 211.448 231.122H204.494C203.463 228.269 202.021 220.145 204.494 210.477ZM211.448 175.732V180.516L235.404 175.732C237.465 174.221 240.041 171.301 233.858 171.703L211.448 175.732ZM204.494 175.732L203.206 180.516C198.827 179.844 188.626 180.163 182.856 186.81C181.139 184.124 176.674 179.106 172.553 180.516L173.583 176.739C176.075 176.487 181.419 176.89 182.856 180.516C187.75 178.124 198.93 173.818 204.494 175.732ZM165.856 173.969L164.568 178.501L142.415 169.186C141.041 167.171 139.633 163.395 144.991 164.402C150.349 165.409 161.133 171.2 165.856 173.969Z" stroke="#202020"/>
</svg>
